<?xml version="1.0" encoding="UTF-8" standalone="no"?>
<svg
   data-v-fde0c5aa=""
   viewBox="0 0 260.00003 129.30699"
   class="iconAboveSlogan"
   version="1.1"
   id="svg23"
   sodipodi:docname="tStadCards-blue.svg"
   width="260.00003"
   height="129.30699"
   inkscape:version="1.2.2 (b0a8486541, 2022-12-01)"
   xmlns:inkscape="http://www.inkscape.org/namespaces/inkscape"
   xmlns:sodipodi="http://sodipodi.sourceforge.net/DTD/sodipodi-0.dtd"
   xmlns="http://www.w3.org/2000/svg"
   xmlns:svg="http://www.w3.org/2000/svg">
  <sodipodi:namedview
     id="namedview25"
     pagecolor="#ffffff"
     bordercolor="#666666"
     borderopacity="1.0"
     inkscape:showpageshadow="2"
     inkscape:pageopacity="0.0"
     inkscape:pagecheckerboard="0"
     inkscape:deskcolor="#d1d1d1"
     showgrid="false"
     inkscape:zoom="2.91"
     inkscape:cx="143.47079"
     inkscape:cy="85.910653"
     inkscape:window-width="1920"
     inkscape:window-height="1027"
     inkscape:window-x="-8"
     inkscape:window-y="-8"
     inkscape:window-maximized="1"
     inkscape:current-layer="svg23" />
  <!---->
  <defs
     data-v-fde0c5aa=""
     id="defs2">
    <!---->
  </defs>
  <defs
     data-v-fde0c5aa=""
     id="defs6">
    <!---->
  </defs>
  <g
     data-v-fde0c5aa=""
     id="81172c1f-7a50-4af6-bb56-36aae0e05a69"
     fill="#000000"
     transform="matrix(3.4318904,0,0,3.4318904,-2.127772,42.306882)">
    <path
       d="m 1.09,13.27 -0.47,-3 v 0 Q 0.62,9.9 0.8,9.65 v 0 0 Q 0.98,9.41 1.33,9.41 v 0 0 q 0.34,0 0.53,0.24 v 0 0 q 0.2,0.25 0.2,0.57 v 0 l -0.48,3.02 v 0 Q 1.57,13.37 1.5,13.47 v 0 0 q -0.07,0.1 -0.17,0.1 v 0 0 q -0.2,0 -0.24,-0.3 z m 2.53,4.21 V 13.66 L 3.2,13.67 v 0 q -0.25,0 -0.37,-0.05 v 0 0 Q 2.71,13.57 2.71,13.42 v 0 0 q 0,-0.16 0.14,-0.28 v 0 0 q 0.13,-0.13 0.3,-0.2 v 0 0 q 0.47,-0.19 0.57,-0.32 v 0 0 q 0.09,-0.14 0.27,-0.59 v 0 0 Q 4.45,10.9 4.76,10.9 v 0 0 q 0.16,0 0.18,0.34 v 0 0 q 0.02,0.34 0.03,0.52 v 0 0 q 0,0.18 -0.01,0.53 v 0 0 q 0,0.35 0,0.49 v 0 h 1.62 v 0 q 0.24,0 0.41,0.12 v 0 0 q 0.16,0.12 0.16,0.32 v 0 0 q 0,0.2 -0.16,0.31 v 0 0 q -0.16,0.11 -0.4,0.11 v 0 H 4.96 l -0.01,3.49 v 0 q 0,1.48 0.74,1.48 v 0 0 q 0.21,0 0.61,-0.12 v 0 0 q 0.41,-0.13 0.53,-0.13 v 0 0 q 0.28,0 0.28,0.32 v 0 0 q 0,0.26 -0.66,0.51 v 0 0 Q 5.79,19.44 5.1,19.44 v 0 0 q -0.7,0 -1.09,-0.54 v 0 0 Q 3.62,18.36 3.62,17.48 Z m 8.35,-7.01 v 0 0 q -0.83,0 -1.31,0.21 v 0 0 Q 9.8,11.08 9.8,11.73 v 0 0 q 0,0.35 0.2,0.55 v 0 0 q 0.53,0.56 1.38,0.94 v 0 0 q 0.51,0.23 1.49,0.58 v 0 0 q 0.97,0.36 1.31,0.51 v 0 0 q 0.35,0.16 0.77,0.43 v 0 0 q 0.42,0.26 0.69,0.55 v 0 0 q 0.66,0.69 0.66,1.58 v 0 0 q 0,0.64 -0.35,1.15 v 0 0 q -0.34,0.51 -0.92,0.82 v 0 0 q -1.18,0.64 -2.69,0.64 v 0 0 q -2.04,0 -3.33,-0.71 v 0 0 Q 8.58,18.53 8.31,18.16 v 0 0 Q 8.03,17.78 8.03,17.35 v 0 0 q 0,-0.42 0.26,-0.67 v 0 0 q 0.26,-0.25 0.74,-0.25 v 0 0 q 0.49,0 0.76,0.34 v 0 0 q 0.27,0.33 0.27,0.87 v 0 0 q 0,0.22 -0.05,0.46 v 0 0 q 1.04,0.53 2.23,0.53 v 0 0 q 1.04,0 1.78,-0.31 v 0 0 q 0.84,-0.36 0.84,-1.26 v 0 0 q 0,-0.93 -1.87,-1.65 v 0 0 q -0.32,-0.12 -0.97,-0.34 v 0 0 Q 10.68,14.6 10,14.25 v 0 0 Q 8.34,13.37 8.34,12.05 v 0 0 q 0,-0.62 0.33,-1.11 v 0 0 q 0.34,-0.48 0.9,-0.76 v 0 0 q 1.14,-0.56 2.65,-0.56 v 0 0 q 1.79,0 2.89,0.59 v 0 0 q 0.38,0.21 0.62,0.55 v 0 0 q 0.25,0.34 0.25,0.77 v 0 0 q 0,0.43 -0.3,0.7 v 0 0 q -0.3,0.28 -0.74,0.28 v 0 0 q -0.43,0 -0.64,-0.04 v 0 0 q -0.09,-1.2 -0.56,-1.6 v 0 0 q -0.47,-0.4 -1.77,-0.4 z m 5.49,7.01 v -3.82 l -0.42,0.01 v 0 q -0.25,0 -0.37,-0.05 v 0 0 q -0.11,-0.05 -0.11,-0.2 v 0 0 q 0,-0.16 0.13,-0.28 v 0 0 q 0.13,-0.13 0.3,-0.2 v 0 0 q 0.48,-0.19 0.57,-0.32 v 0 0 q 0.09,-0.14 0.27,-0.59 v 0 0 Q 18.29,10.9 18.6,10.9 v 0 0 q 0.16,0 0.18,0.34 v 0 0 q 0.03,0.34 0.03,0.52 v 0 0 q 0,0.18 0,0.53 v 0 0 q -0.01,0.35 -0.01,0.49 v 0 h 1.63 v 0 q 0.24,0 0.4,0.12 v 0 0 q 0.16,0.12 0.16,0.32 v 0 0 q 0,0.2 -0.16,0.31 v 0 0 q -0.16,0.11 -0.4,0.11 v 0 H 18.8 l -0.01,3.49 v 0 q 0,1.48 0.75,1.48 v 0 0 q 0.2,0 0.61,-0.12 v 0 0 q 0.4,-0.13 0.52,-0.13 v 0 0 q 0.28,0 0.28,0.32 v 0 0 q 0,0.26 -0.66,0.51 v 0 0 q -0.66,0.25 -1.35,0.25 v 0 0 q -0.69,0 -1.09,-0.54 v 0 0 q -0.39,-0.54 -0.39,-1.42 z m 5.73,-2.5 v 0 0 q -0.26,0 -0.57,-0.2 v 0 0 Q 22.3,14.58 22.3,14.26 v 0 0 q 0,-0.33 0.18,-0.62 v 0 0 q 0.19,-0.28 0.48,-0.46 v 0 0 q 0.3,-0.18 0.69,-0.31 v 0 0 q 0.71,-0.22 1.53,-0.22 v 0 0 q 1.38,0 2,0.61 v 0 0 q 0.63,0.61 0.63,2.02 v 0 l -0.01,2.01 v 0 q 0,0.74 0.19,0.92 v 0 0 q 0.04,0.05 0.3,0.12 v 0 0 q 0.69,0.22 0.69,0.34 v 0 0 q 0,0.72 -1.47,0.72 v 0 0 q -0.55,0 -0.72,-0.25 v 0 0 q -0.16,-0.25 -0.18,-0.89 v 0 0 q -0.31,0.55 -0.93,0.89 v 0 0 q -0.63,0.34 -1.35,0.34 v 0 0 q -0.72,0 -1.22,-0.18 v 0 0 q -0.5,-0.19 -0.81,-0.6 v 0 0 q -0.31,-0.41 -0.31,-0.89 v 0 0 q 0,-0.48 0.11,-0.77 v 0 0 q 0.11,-0.29 0.27,-0.49 v 0 0 q 0.17,-0.2 0.45,-0.36 v 0 0 q 0.29,-0.15 0.53,-0.25 v 0 0 q 0.25,-0.09 0.64,-0.16 v 0 0 q 0.57,-0.11 0.96,-0.16 v 0 0 q 0.39,-0.04 0.4,-0.05 v 0 0 q 0.05,0 0.47,-0.05 v 0 0 q 0.43,-0.04 0.68,-0.18 v 0 0 q 0,-1.3 -0.35,-1.7 v 0 0 Q 25.84,13.3 25.14,13.3 v 0 0 q -0.71,0 -1.06,0.36 v 0 0 q -0.35,0.36 -0.35,1.14 v 0 0.15 0 q -0.28,0.03 -0.54,0.03 z m 3.31,0.98 v 0 0 q -0.47,0.17 -1.05,0.23 v 0 0 q -0.59,0.07 -0.92,0.15 v 0 0 q -0.34,0.09 -0.56,0.22 v 0 0 q -0.52,0.3 -0.52,1.04 v 0 0 q 0,1.17 1.36,1.17 v 0 0 q 1.19,0 1.5,-1.13 v 0 0 Q 26.5,17 26.5,15.96 Z m 8.35,-1.78 v 0 q -0.29,-0.37 -0.82,-0.59 v 0 0 q -0.54,-0.23 -1.2,-0.23 v 0 0 q -0.67,0 -1.13,0.39 v 0 0 q -0.9,0.74 -0.9,2.2 v 0 0 q 0,1.13 0.61,1.91 v 0 0 q 0.61,0.78 1.59,0.78 v 0 0 q 0.98,0 1.42,-0.41 v 0 0 q 0.43,-0.4 0.43,-1.35 v 0 z m -1.89,-1.55 v 0 0 q 0.45,0 1.01,0.14 v 0 0 q 0.56,0.15 0.88,0.31 v 0 -2.29 0 q 0,-0.62 -0.49,-0.67 v 0 0 q -0.05,0 -0.13,-0.01 v 0 0 Q 34.16,10.1 34.13,10.1 v 0 0 q -0.04,0 -0.09,-0.01 v 0 0 q -0.05,-0.01 -0.08,-0.03 v 0 0 q -0.02,-0.01 -0.04,-0.03 v 0 0 Q 33.87,9.99 33.87,9.83 v 0 0 q 0,-0.16 0.21,-0.33 v 0 0 q 0.39,-0.31 1.04,-0.31 v 0 0 q 0.69,0 0.8,0.08 v 0 0 q 0.24,0.16 0.24,0.43 v 0 7.48 0 q 0,0.76 0.16,0.98 v 0 0 q 0.17,0.22 0.3,0.27 v 0 0 q 0.14,0.05 0.24,0.08 v 0 0 q 0.1,0.04 0.14,0.05 v 0 0 q 0.04,0.02 0.1,0.06 v 0 0 q 0.11,0.06 0.11,0.19 v 0 0 q 0,0.29 -0.31,0.42 v 0 0 q -0.3,0.14 -0.8,0.14 v 0 0 q -0.51,0 -0.73,-0.2 v 0 0 q -0.23,-0.19 -0.4,-0.7 v 0 0 q -0.56,0.99 -2.34,0.99 v 0 0 q -1.42,0 -2.31,-0.94 v 0 0 q -0.89,-0.94 -0.89,-2.45 v 0 0 q 0,-1.5 0.99,-2.47 v 0 0 q 0.99,-0.97 2.54,-0.97 z m 6.46,1.66 v 0 0 q 0,0.92 0.34,1.7 v 0 0 q 0.33,0.77 0.92,1.3 v 0 0 q 1.24,1.13 3.19,1.13 v 0 0 q 1.95,0 3.43,-1.48 v 0 0 q 0.17,-0.16 0.3,-0.16 v 0 0 q 0.12,0 0.23,0.09 v 0 0 q 0.12,0.1 0.12,0.23 v 0 0 q 0,0.14 -0.08,0.31 v 0 h 0.01 v 0 q -0.51,0.9 -1.71,1.5 v 0 0 q -1.2,0.6 -2.46,0.6 v 0 0 q -1.26,0 -2.29,-0.32 v 0 0 q -1.03,-0.32 -1.83,-0.92 v 0 0 q -0.8,-0.59 -1.27,-1.52 v 0 0 q -0.47,-0.92 -0.47,-2.08 v 0 0 q 0,-1.16 0.44,-2.12 v 0 0 q 0.45,-0.96 1.23,-1.59 v 0 0 q 1.6,-1.3 4.08,-1.3 v 0 0 q 1.32,0 2.49,0.41 v 0 0 q 0.61,0.21 0.99,0.6 v 0 0 q 0.38,0.4 0.38,0.9 v 0 0 q 0,0.51 -0.32,0.76 v 0 0 q -0.31,0.24 -0.74,0.24 v 0 0 q -0.42,0 -0.62,-0.07 v 0 0 q -0.07,-1.06 -0.61,-1.58 v 0 0 Q 44.63,10.4 43.54,10.4 v 0 0 q -1.85,0 -2.99,1.07 v 0 0 q -1.13,1.08 -1.13,2.82 z m 10.11,0.69 v 0 0 q -0.26,0 -0.57,-0.2 v 0 0 q -0.32,-0.2 -0.32,-0.52 v 0 0 q 0,-0.33 0.18,-0.62 v 0 0 q 0.19,-0.28 0.48,-0.46 v 0 0 Q 49.59,13 49.98,12.87 v 0 0 q 0.72,-0.22 1.54,-0.22 v 0 0 q 1.38,0 2,0.61 v 0 0 q 0.63,0.61 0.63,2.02 v 0 l -0.01,2.01 v 0 q 0,0.74 0.19,0.92 v 0 0 q 0.04,0.05 0.3,0.12 v 0 0 q 0.69,0.22 0.69,0.34 v 0 0 q 0,0.72 -1.47,0.72 v 0 0 q -0.55,0 -0.72,-0.25 v 0 0 q -0.17,-0.25 -0.18,-0.89 v 0 0 q -0.31,0.55 -0.94,0.89 v 0 0 q -0.62,0.34 -1.34,0.34 v 0 0 q -0.72,0 -1.22,-0.18 v 0 0 q -0.5,-0.19 -0.81,-0.6 v 0 0 q -0.31,-0.41 -0.31,-0.89 v 0 0 q 0,-0.48 0.11,-0.77 v 0 0 q 0.11,-0.29 0.27,-0.49 v 0 0 q 0.17,-0.2 0.45,-0.36 v 0 0 q 0.28,-0.15 0.53,-0.25 v 0 0 q 0.25,-0.09 0.64,-0.16 v 0 0 q 0.57,-0.11 0.96,-0.16 v 0 0 q 0.39,-0.04 0.4,-0.05 v 0 0 q 0.04,0 0.47,-0.05 v 0 0 q 0.43,-0.04 0.67,-0.18 v 0 0 q 0,-1.3 -0.34,-1.7 v 0 0 Q 52.18,13.3 51.47,13.3 v 0 0 q -0.7,0 -1.05,0.36 v 0 0 q -0.35,0.36 -0.35,1.14 v 0 0.15 0 q -0.28,0.03 -0.54,0.03 z m 3.3,0.98 v 0 0 q -0.46,0.17 -1.04,0.23 v 0 0 q -0.59,0.07 -0.92,0.15 v 0 0 q -0.34,0.09 -0.56,0.22 v 0 0 q -0.52,0.3 -0.52,1.04 v 0 0 q 0,1.17 1.36,1.17 v 0 0 q 1.19,0 1.5,-1.13 v 0 0 Q 52.83,17 52.83,15.96 Z m 5.19,3.36 v 0 l -0.59,0.01 v 0 q -0.9,0 -1.11,-0.28 v 0 0 q -0.09,-0.12 -0.09,-0.3 v 0 0 q 0,-0.17 0.13,-0.24 v 0 0 q 0.14,-0.07 0.31,-0.07 v 0 0 q 0.16,-0.01 0.3,-0.11 v 0 0 q 0.14,-0.1 0.14,-0.32 v 0 -3.37 0 q 0,-0.61 -0.15,-0.76 v 0 0 Q 56.81,13.74 56.71,13.7 v 0 0 Q 56.62,13.66 56.4,13.6 v 0 0 q -0.21,-0.06 -0.34,-0.13 v 0 0 q -0.14,-0.06 -0.14,-0.18 v 0 0 q 0,-0.55 1.47,-0.55 v 0 0 q 0.63,0 0.79,0.22 v 0 0 q 0.17,0.21 0.17,0.99 v 0 0 q 0.23,-0.59 0.77,-0.92 v 0 0 q 0.54,-0.34 1.1,-0.34 v 0 0 q 0.57,0 0.93,0.25 v 0 0 q 0.37,0.24 0.37,0.61 v 0 0 q 0,0.37 -0.24,0.6 v 0 0 q -0.24,0.22 -0.59,0.22 v 0 0 q -0.35,0 -0.6,-0.19 v 0 0 Q 59.84,14 59.77,13.71 v 0 0 q -0.18,-0.03 -0.3,-0.03 v 0 0 q -1.06,0 -1.06,2.45 v 0 1.88 0 q 0,0.4 0.44,0.42 v 0 0 q 0.44,0.03 0.44,0.36 v 0 0 q 0,0.37 -0.41,0.46 v 0 0 q -0.32,0.07 -0.86,0.07 z m 9.25,-5.14 v 0 q -0.28,-0.37 -0.82,-0.59 v 0 0 q -0.54,-0.23 -1.2,-0.23 v 0 0 q -0.66,0 -1.13,0.39 v 0 0 q -0.9,0.74 -0.9,2.2 v 0 0 q 0,1.13 0.61,1.91 v 0 0 q 0.61,0.78 1.59,0.78 v 0 0 q 0.98,0 1.42,-0.41 v 0 0 q 0.43,-0.4 0.43,-1.35 v 0 z m -1.88,-1.55 v 0 0 q 0.45,0 1,0.14 v 0 0 q 0.56,0.15 0.88,0.31 v 0 -2.29 0 q 0,-0.62 -0.49,-0.67 v 0 0 q -0.05,0 -0.12,-0.01 v 0 0 Q 66.58,10.1 66.55,10.1 v 0 0 q -0.04,0 -0.09,-0.01 v 0 0 q -0.05,-0.01 -0.07,-0.03 v 0 0 q -0.03,-0.01 -0.05,-0.03 v 0 0 Q 66.29,9.99 66.29,9.83 v 0 0 q 0,-0.16 0.22,-0.33 v 0 0 q 0.38,-0.31 1.03,-0.31 v 0 0 q 0.69,0 0.81,0.08 v 0 0 q 0.23,0.16 0.23,0.43 v 0 7.48 0 q 0,0.76 0.16,0.98 v 0 0 q 0.17,0.22 0.31,0.27 v 0 0 q 0.13,0.05 0.23,0.08 v 0 0 q 0.1,0.04 0.14,0.05 v 0 0 q 0.04,0.02 0.1,0.06 v 0 0 q 0.11,0.06 0.11,0.19 v 0 0 q 0,0.29 -0.3,0.42 v 0 0 q -0.31,0.14 -0.81,0.14 v 0 0 q -0.5,0 -0.73,-0.2 v 0 0 q -0.22,-0.19 -0.39,-0.7 v 0 0 q -0.57,0.99 -2.34,0.99 v 0 0 q -1.42,0 -2.32,-0.94 v 0 0 q -0.89,-0.94 -0.89,-2.45 v 0 0 q 0,-1.5 0.99,-2.47 v 0 0 q 0.99,-0.97 2.55,-0.97 z m 8.1,6.07 v 0 0 q 1.53,0 1.53,-0.95 v 0 0 q 0,-0.71 -1.38,-1.11 v 0 0 q -0.26,-0.08 -0.63,-0.18 v 0 0 q -0.69,-0.18 -0.93,-0.28 v 0 0 q -0.6,-0.23 -1.02,-0.68 v 0 0 q -0.42,-0.44 -0.42,-1.05 v 0 0 q 0,-0.78 0.75,-1.3 v 0 0 q 0.75,-0.52 1.81,-0.52 v 0 0 q 1.03,0 1.93,0.37 v 0 0 q 0.45,0.19 0.72,0.51 v 0 0 q 0.28,0.33 0.28,0.69 v 0 0 q 0,0.35 -0.28,0.57 v 0 0 q -0.29,0.21 -0.59,0.21 v 0 0 q -0.3,0 -0.4,-0.06 v 0 0 q -0.1,-0.06 -0.1,-0.27 v 0 0 q 0,-1.32 -1.4,-1.32 v 0 0 q -0.58,0 -1.02,0.26 v 0 0 q -0.43,0.25 -0.43,0.66 v 0 0 q 0,0.65 1.34,1.02 v 0 0 q 0.22,0.06 0.52,0.13 v 0 0 q 0.3,0.08 0.55,0.16 v 0 0 q 0.25,0.08 0.53,0.19 v 0 0 q 0.28,0.1 0.58,0.27 v 0 0 q 0.31,0.17 0.5,0.37 v 0 0 q 0.45,0.45 0.45,1.09 v 0 0 q 0,0.64 -0.43,1.11 v 0 0 q -0.86,0.91 -2.46,0.91 v 0 0 q -1.05,0 -1.93,-0.35 v 0 0 q -0.45,-0.17 -0.73,-0.49 v 0 0 q -0.27,-0.31 -0.27,-0.67 v 0 0 q 0,-0.35 0.23,-0.55 v 0 0 q 0.22,-0.19 0.51,-0.19 v 0 0 q 0.29,0 0.49,0.17 v 0 0 q 0.2,0.18 0.2,0.45 v 0 0 q 0,0.26 -0.05,0.56 v 0 0 q 0.73,0.27 1.55,0.27 z"
       id="path8" />
  </g>
  <defs
     data-v-fde0c5aa=""
     id="defs11">
    <!---->
  </defs>
  <g
     data-v-fde0c5aa=""
     id="00ff4326-0c9a-4886-b8b4-3b92ccb5ae99"
     stroke="none"
     fill="#395eca"
     transform="matrix(0.71846277,0,0,0.71846277,94.18097,-8.0523189)"
     style="image-rendering:auto;opacity:0.6770428">
    <path
       d="M 31.505,85.939 A 4.218,4.218 0 0 1 25.993,83.673 L 4.498,32.19 A 4.218,4.218 0 0 1 6.763,26.677 L 36.64,14.203 a 4.22,4.22 0 0 1 5.513,2.266 l 5.808,13.913 1.122,-4.25 -4.464,-10.693 A 6.895,6.895 0 0 0 35.61,11.737 L 5.733,24.211 A 6.895,6.895 0 0 0 2.031,33.22 l 21.495,51.485 c 1.463,3.505 5.505,5.163 9.009,3.701 l 11.42,-4.77 A 10.206,10.206 0 0 1 40.88,82.025 Z"
       id="path13" />
    <path
       d="m 40.652,56.375 0.13,-0.458 c 0,0 -2.204,0.119 -3.819,-1.373 -0.683,-0.633 -1.294,-1.578 -1.777,-2.594 0.991,1.163 2.811,1.562 4.271,0.95 a 3.44,3.44 0 1 0 -2.651,-6.348 c -1.405,0.585 -2.38,2.065 -2.338,3.531 A 9.375,9.375 0 0 1 34.16,48.704 c 1.352,-0.936 1.844,-2.926 1.192,-4.487 a 3.4405777,3.4405777 0 1 0 -6.35,2.651 c 0.655,1.568 2.43,2.621 4.054,2.301 0.262,0.345 0.522,0.757 0.767,1.21 -1.01,-1.076 -2.761,-1.431 -4.174,-0.84 a 3.442,3.442 0 0 0 2.651,6.352 c 1.449,-0.607 2.441,-2.164 2.328,-3.676 0.359,1.024 0.591,2.104 0.583,3.061 -0.015,2.199 -1.708,3.682 -1.708,3.682 l 0.003,-10e-4 0.336,0.262 c 3.724,-3.367 6.81,-2.844 6.81,-2.844 M 13.017,33.03 a 1.8555771,1.8555771 0 1 0 -1.429,-3.425 c -0.757,0.317 -1.283,1.115 -1.26,1.905 a 5.043,5.043 0 0 1 -0.167,-0.744 c 0.729,-0.504 0.995,-1.578 0.643,-2.419 a 1.856,1.856 0 0 0 -3.425,1.429 c 0.353,0.845 1.311,1.413 2.185,1.241 0.142,0.187 0.283,0.409 0.414,0.653 C 9.434,31.089 8.49,30.899 7.728,31.217 a 1.8551157,1.8551157 0 0 0 1.429,3.424 c 0.783,-0.327 1.318,-1.166 1.256,-1.981 0.194,0.552 0.319,1.134 0.315,1.649 -0.007,1.188 -0.921,1.985 -0.921,1.985 h 0.002 l 0.181,0.142 c 2.009,-1.817 3.673,-1.534 3.673,-1.534 l 0.069,-0.247 c 0,0 -1.188,0.063 -2.059,-0.74 -0.369,-0.341 -0.699,-0.852 -0.959,-1.4 0.535,0.628 1.515,0.844 2.303,0.515 M 94.074,22.804 62.77,14.546 c -2.953,-0.779 -6.004,0.999 -6.783,3.951 l -3.907,14.812 -1.12,4.25 -9.204,34.884 c -0.777,2.951 1.001,6.005 3.952,6.783 l 1.151,0.304 4.251,1.122 25.902,6.832 c 2.95,0.779 6.002,-0.998 6.781,-3.95 L 98.025,29.586 c 0.78,-2.952 -1,-6.003 -3.951,-6.782 M 58.232,21.798 c 0.088,-0.753 0.4,-1.394 1.004,-1.881 0.759,-0.611 1.596,-1.094 2.477,-1.497 0.51,-0.233 1.032,-0.428 1.551,-0.642 0.06,-0.024 0.1,-0.027 0.147,0.027 0.838,0.97 1.594,2 2.147,3.164 0.113,0.236 0.211,0.48 0.315,0.72 0.263,0.616 0.229,1.237 0.042,1.863 a 1.763,1.763 0 0 1 -0.35,0.661 c -0.592,0.675 -1.375,1.101 -2.471,0.729 -0.564,-0.193 -0.968,-0.584 -1.224,-1.12 0,0.386 0.063,0.746 0.163,1.072 0.378,1.211 1.268,1.967 1.268,1.967 l -0.219,0.163 c 0,0 -1.229,-1.32 -4.113,-1.085 l -0.062,-0.237 -0.002,-0.001 c 0,0 1.148,-0.218 2.072,-1.086 a 3.53,3.53 0 0 0 0.656,-0.826 c -0.183,0.096 -0.359,0.194 -0.546,0.261 -1.453,0.526 -3.032,-0.717 -2.855,-2.252 m 11.351,34.418 c 0.707,2.276 2.379,3.695 2.379,3.695 l -0.414,0.309 c 0,0 -2.308,-2.48 -7.728,-2.04 l -0.115,-0.445 -0.004,-0.002 c 0,0 2.156,-0.41 3.893,-2.041 0.458,-0.428 0.883,-0.94 1.235,-1.553 -0.345,0.184 -0.679,0.364 -1.029,0.492 -2.739,0.985 -5.702,-1.352 -5.368,-4.234 0.164,-1.416 0.752,-2.619 1.885,-3.534 1.427,-1.149 2.996,-2.058 4.65,-2.813 0.956,-0.436 1.943,-0.805 2.914,-1.205 0.109,-0.046 0.188,-0.053 0.279,0.052 1.578,1.823 2.992,3.757 4.037,5.944 0.211,0.444 0.396,0.901 0.592,1.353 0.496,1.156 0.436,2.324 0.079,3.501 -0.14,0.457 -0.337,0.885 -0.65,1.242 -1.114,1.266 -2.589,2.066 -4.646,1.367 C 70.51,55.943 69.755,55.207 69.273,54.2 a 6.666,6.666 0 0 0 0.31,2.016 M 81.548,80.23 c -0.089,0.754 -0.399,1.395 -1.004,1.884 a 11.496,11.496 0 0 1 -2.476,1.495 c -0.508,0.231 -1.033,0.428 -1.549,0.642 -0.061,0.024 -0.101,0.028 -0.149,-0.026 -0.841,-0.972 -1.593,-1.998 -2.147,-3.164 -0.111,-0.235 -0.213,-0.479 -0.315,-0.72 -0.265,-0.616 -0.23,-1.237 -0.042,-1.862 0.072,-0.244 0.179,-0.473 0.348,-0.662 0.596,-0.674 1.377,-1.101 2.473,-0.729 0.562,0.192 0.967,0.583 1.223,1.119 A 3.553,3.553 0 0 0 77.747,77.135 C 77.368,75.926 76.48,75.168 76.48,75.168 l 0.219,-0.163 c 0,0 1.229,1.32 4.111,1.085 l 0.062,0.236 0.002,0.002 c 0,0 -1.146,0.218 -2.071,1.087 a 3.585,3.585 0 0 0 -0.659,0.825 c 0.186,-0.098 0.361,-0.194 0.551,-0.262 1.451,-0.524 3.032,0.72 2.853,2.252"
       id="path15" />
  </g>
  <defs
     data-v-fde0c5aa=""
     id="defs18">
    <!---->
  </defs>
  <g
     data-v-fde0c5aa=""
     id="2db5e426-a849-408d-9ea2-e1cede4eb463"
     fill="#000000"
     transform="matrix(1.0135135,0,0,1.0135135,32.256757,117.56036)">
    <path
       d="M 2.72,11.48 V 5.4 H 4.33 V 4.48 H 2.72 V 1.97 H 1.67 V 4.48 H 0.24 V 5.4 h 1.43 v 6.08 z M 13.31,4.65 c 0,-0.62 0.37,-1.57 2.47,-1.57 1.69,0 2.48,0.74 2.59,1.67 h 1.08 C 19.36,3.36 18.24,2.1 15.78,2.1 c -2.33,0 -3.49,1.05 -3.49,2.56 0,3.18 6.34,2.03 6.34,4.3 0,1.09 -0.98,1.64 -2.54,1.64 -1.61,0 -2.92,-0.55 -2.99,-1.89 h -1.09 c 0.14,1.66 1.26,2.88 4.01,2.88 2.28,0 3.66,-0.95 3.66,-2.67 0,-3.24 -6.37,-2.12 -6.37,-4.27 z m 16.58,6.83 V 5.4 H 31.5 V 4.48 H 29.89 V 1.97 H 28.84 V 4.48 H 27.41 V 5.4 h 1.43 v 6.08 z M 42.46,4.37 c -2.04,0 -3.39,1.61 -3.39,3.61 0,2 1.35,3.61 3.39,3.61 1.16,0 1.99,-0.47 2.51,-1.23 v 1.12 h 1.05 v -7 H 44.97 V 5.61 C 44.45,4.86 43.62,4.37 42.46,4.37 Z m 0.14,6.27 c -1.55,0 -2.48,-1.22 -2.48,-2.66 0,-1.44 0.93,-2.66 2.48,-2.66 1.56,0 2.42,1.22 2.42,2.66 0,1.44 -0.86,2.66 -2.42,2.66 z M 57.79,4.37 c -2.04,0 -3.39,1.61 -3.39,3.61 0,2 1.35,3.61 3.39,3.61 1.16,0 1.99,-0.47 2.51,-1.23 v 1.12 h 1.05 V 1.68 H 60.3 V 5.61 C 59.78,4.86 58.95,4.37 57.79,4.37 Z m 0.14,6.27 c -1.55,0 -2.48,-1.22 -2.48,-2.66 0,-1.44 0.93,-2.66 2.48,-2.66 1.56,0 2.42,1.22 2.42,2.66 0,1.44 -0.86,2.66 -2.42,2.66 z m 16.44,-0.07 c -2.26,0 -3.52,-1.64 -3.52,-3.72 0,-2.09 1.26,-3.73 3.52,-3.73 1.52,0 2.53,0.73 3.01,1.86 h 1.1 C 77.9,3.29 76.38,2.1 74.28,2.1 71.5,2.1 69.8,4.21 69.8,6.85 c 0,2.63 1.7,4.74 4.48,4.74 2.1,0 3.62,-1.19 4.2,-2.88 h -1.1 c -0.48,1.13 -1.49,1.86 -3.01,1.86 z m 15.41,-6.2 c -2.04,0 -3.39,1.61 -3.39,3.61 0,2 1.35,3.61 3.39,3.61 1.16,0 1.99,-0.47 2.51,-1.23 v 1.12 h 1.05 v -7 H 92.29 V 5.61 C 91.77,4.86 90.94,4.37 89.78,4.37 Z m 0.14,6.27 c -1.55,0 -2.48,-1.22 -2.48,-2.66 0,-1.44 0.93,-2.66 2.48,-2.66 1.56,0 2.42,1.22 2.42,2.66 0,1.44 -0.86,2.66 -2.42,2.66 z m 15.86,-6.27 c -1.73,0 -2.43,1.36 -2.57,1.83 V 4.48 h -1.05 v 7 h 1.05 V 8.4 c 0,-1.54 0.95,-2.98 2.52,-2.98 h 0.12 V 4.37 Z m 10.98,0 c -2.04,0 -3.39,1.61 -3.39,3.61 0,2 1.35,3.61 3.39,3.61 1.16,0 1.99,-0.47 2.51,-1.23 v 1.12 h 1.05 v -9.8 h -1.05 v 3.93 c -0.52,-0.75 -1.35,-1.24 -2.51,-1.24 z m 0.14,6.27 c -1.55,0 -2.48,-1.22 -2.48,-2.66 0,-1.44 0.93,-2.66 2.48,-2.66 1.55,0 2.42,1.22 2.42,2.66 0,1.44 -0.87,2.66 -2.42,2.66 z m 14.67,-6.27 c -1.8,0 -2.74,0.74 -2.74,2 0,2.56 4.66,1.47 4.66,3.22 0,0.95 -1.22,1.11 -1.79,1.11 -1.36,0 -1.89,-0.7 -1.96,-1.42 h -1.09 c 0.07,1.23 1.09,2.31 3.03,2.31 1.74,0 2.86,-0.74 2.86,-2.1 0,-2.63 -4.66,-1.54 -4.66,-3.22 0,-0.68 0.57,-1.01 1.66,-1.01 1.18,0 1.63,0.49 1.71,1.1 h 1.07 c -0.13,-1.03 -0.9,-1.99 -2.75,-1.99 z m 11.15,5.68 v 1.43 h 1.35 v -1.43 z m 13.16,0.59 c -1.56,0 -2.54,-1.22 -2.54,-2.66 0,-1.44 0.98,-2.66 2.54,-2.66 0.99,0 1.7,0.56 2.03,1.36 h 1.13 c -0.41,-1.36 -1.65,-2.31 -3.3,-2.31 -2.1,0 -3.45,1.61 -3.45,3.61 0,2 1.35,3.61 3.45,3.61 1.65,0 2.89,-0.95 3.3,-2.31 h -1.13 c -0.33,0.8 -1.04,1.36 -2.03,1.36 z m 14.5,-6.27 c -2.14,0 -3.47,1.61 -3.47,3.61 0,2 1.33,3.61 3.47,3.61 2.14,0 3.47,-1.61 3.47,-3.61 0,-2 -1.33,-3.61 -3.47,-3.61 z m 0,6.27 c -1.55,0 -2.42,-1.22 -2.42,-2.66 0,-1.44 0.87,-2.66 2.42,-2.66 1.55,0 2.42,1.22 2.42,2.66 0,1.44 -0.87,2.66 -2.42,2.66 z m 17.58,-3.35 c 0,-1.24 0.86,-1.97 1.89,-1.97 0.98,0 1.74,0.78 1.74,1.96 v 4.2 h 1.05 V 7.25 c 0,-1.76 -1.25,-2.88 -2.59,-2.88 -1.39,0 -2.13,0.94 -2.41,1.41 -0.45,-0.89 -1.3,-1.41 -2.22,-1.41 -1.14,0 -1.81,0.61 -2.13,1.17 V 4.48 h -1.05 v 7 h 1.05 V 7.29 c 0,-1.24 0.85,-1.97 1.89,-1.97 0.98,0 1.73,0.78 1.73,1.96 v 4.2 h 1.05 z"
       id="path20" />
  </g>
</svg>
