<?xml version="1.0" encoding="UTF-8" standalone="no"?>
<svg
   data-v-fde0c5aa=""
   viewBox="0 0 260 102.71602"
   class="iconAboveSlogan"
   version="1.1"
   id="svg26"
   sodipodi:docname="default_mp.svg"
   width="260"
   height="102.71602"
   inkscape:version="1.2 (dc2aeda, 2022-05-15)"
   xmlns:inkscape="http://www.inkscape.org/namespaces/inkscape"
   xmlns:sodipodi="http://sodipodi.sourceforge.net/DTD/sodipodi-0.dtd"
   xmlns:xlink="http://www.w3.org/1999/xlink"
   xmlns="http://www.w3.org/2000/svg"
   xmlns:svg="http://www.w3.org/2000/svg">
  <sodipodi:namedview
     id="namedview28"
     pagecolor="#ffffff"
     bordercolor="#000000"
     borderopacity="0.25"
     inkscape:showpageshadow="2"
     inkscape:pageopacity="0.0"
     inkscape:pagecheckerboard="0"
     inkscape:deskcolor="#d1d1d1"
     showgrid="false"
     inkscape:zoom="2.2250293"
     inkscape:cx="133.7061"
     inkscape:cy="90.111171"
     inkscape:window-width="1440"
     inkscape:window-height="819"
     inkscape:window-x="0"
     inkscape:window-y="25"
     inkscape:window-maximized="1"
     inkscape:current-layer="svg26" />
  <!---->
  <defs
     data-v-fde0c5aa=""
     id="defs2">
    <!---->
    <linearGradient
       inkscape:collect="always"
       xlink:href="#43279632-8562-47a1-87b2-6b5d35c05908"
       id="linearGradient188"
       gradientTransform="scale(1.399686,0.71444597)"
       x1="6.2896473"
       y1="44.669578"
       x2="64.490635"
       y2="44.669578"
       gradientUnits="userSpaceOnUse" />
    <linearGradient
       inkscape:collect="always"
       xlink:href="#43279632-8562-47a1-87b2-6b5d35c05908"
       id="linearGradient190"
       gradientTransform="scale(1.399686,0.71444597)"
       x1="6.2896473"
       y1="44.669578"
       x2="64.490635"
       y2="44.669578"
       gradientUnits="userSpaceOnUse" />
  </defs>
  <rect
     data-v-fde0c5aa=""
     fill="#ddebfb"
     x="-20"
     y="-98.641991"
     width="300"
     height="300"
     class="logo-background-square"
     id="rect4" />
  <defs
     data-v-fde0c5aa=""
     id="defs6">
    <!---->
  </defs>
  <g
     data-v-fde0c5aa=""
     id="d6c04c98-d7b2-4091-ae7e-3da481953249"
     fill="#262c4c"
     transform="matrix(2.0712181,0,0,2.0712181,-0.95275998,54.87064)">
    <path
       d="M 4.13,6.37 H 3.18 V 8.2 l 0.11,1.84 0.87,0.16 v 0.48 L 2.31,10.64 0.46,10.68 V 10.2 L 1.32,10.04 1.43,8.2 V 3.82 L 1.32,1.98 0.46,1.83 V 1.35 L 2.31,1.38 5.64,1.31 v 0 q 1.39,0 2.18,0.59 v 0 0 q 0.79,0.59 0.79,1.69 v 0 0 q 0,0.84 -0.55,1.52 v 0 0 Q 7.51,5.79 5.93,6.15 v 0 l 3.36,3.89 0.54,0.16 0.01,0.48 v 0 q -0.3,0 -0.57,0 v 0 0 q -0.27,0 -0.62,0.03 v 0 0 q -0.25,0 -0.55,0.04 v 0 0 q -0.31,0.04 -0.64,0.12 v 0 0 Q 6.05,8.88 5.52,8.19 v 0 z M 3.19,2.36 v 3.06 l 1.03,0.1 v 0 Q 5.29,5.52 5.99,5 V 5 5 Q 6.7,4.48 6.7,3.71 v 0 0 Q 6.7,2.99 6.12,2.58 v 0 0 Q 5.54,2.17 4.55,2.17 v 0 0 q -0.17,0 -0.34,0.01 v 0 0 Q 4.03,2.19 3.84,2.23 v 0 0 Q 3.44,2.26 3.19,2.36 Z m 12,4.51 v 0 H 14.7 v 0 q -0.64,0 -1.17,0.15 v 0 0 Q 13,7.17 12.62,7.45 v 0 0 q -0.75,0.46 -0.75,1.24 v 0 0 q 0,0.35 0.34,0.66 v 0 0 q 0.35,0.3 0.92,0.3 v 0 0 q 0.95,0 1.51,-0.8 v 0 0 q 0.55,-0.81 0.55,-1.98 z m 0.17,2.17 v 0 0 q -0.69,1.19 -1.43,1.5 v 0 0 q -0.74,0.31 -1.5,0.31 v 0 0 q -1.03,0 -1.66,-0.57 v 0 0 Q 10.13,9.7 10.13,8.89 v 0 0 q 0,-1.31 1.34,-2.06 v 0 0 q 1.34,-0.74 3.72,-0.74 v 0 -0.74 0 q 0,-0.7 -0.35,-0.94 v 0 0 Q 14.49,4.17 13.69,4.17 v 0 0 q -0.81,0 -1.33,0.19 v 0 0 q -0.3,0.11 -0.49,0.19 v 0 0 q -0.04,0.01 -0.09,0.04 v 0 0.69 L 11.31,5.43 10.6,3.85 11.58,3.54 v 0 q 0.97,-0.32 2.44,-0.32 v 0 0 q 2.29,0 2.62,1.36 v 0 0 q 0.33,1.35 0.33,5 v 0 0.23 l 0.72,0.37 v 0.5 l -1,-0.02 -0.41,-0.01 -0.79,0.04 v 0 q -0.02,-0.06 -0.05,-0.16 v 0 0 q -0.02,-0.1 -0.02,-0.32 v 0 0 q 0,-0.24 -0.01,-0.53 v 0 0 Q 15.39,9.39 15.36,9.04 Z m 4.7,-4.83 v 3.82 0 q 0,0.88 0.2,1.26 v 0 0 q 0.16,0.38 0.65,0.38 v 0 0 q 0.24,0 0.52,-0.13 v 0 0 q 0.24,-0.13 0.45,-0.32 v 0 l 0.44,0.49 v 0 q -0.15,0.27 -0.69,0.7 v 0 0 q -0.55,0.43 -1.37,0.43 v 0 0 q -0.84,0 -1.35,-0.49 v 0 0 Q 18.43,9.85 18.43,9.02 v 0 -4.81 H 17.48 V 3.72 l 0.95,-0.3 -0.06,-1.57 1.75,-0.36 -0.06,1.93 1.95,-0.07 -0.38,0.9 z m 5.34,2.87 v 0.86 0 q 0,0.48 0.01,0.81 v 0 0 q 0.02,0.33 0.08,0.79 v 0 0 q 0.06,0.46 0.08,0.5 v 0 l 0.89,0.16 v 0.48 l -1.87,-0.04 -1.71,0.04 V 10.2 l 0.75,-0.16 0.07,-0.65 v 0 q 0.02,-0.3 0.05,-0.69 v 0 0 q 0.02,-0.38 0.02,-0.76 v 0 -1.54 -0.18 -0.16 0 q 0,-0.25 -0.01,-0.51 v 0 0 Q 23.75,5.28 23.71,5.03 v 0 L 23.64,4.19 22.76,4.02 v -0.48 0 q 0.28,0 0.52,-0.04 v 0 0 q 0.35,-0.07 0.51,-0.09 v 0 0 q 0.35,-0.06 0.54,-0.1 v 0 0 q 0.19,-0.05 0.51,-0.14 v 0 h 0.42 l -0.05,2.07 v 0 q 0.34,-1 1.04,-1.52 v 0 0 q 0.33,-0.24 0.67,-0.37 v 0 0 q 0.34,-0.13 0.7,-0.13 v 0 0 q 0.14,0 0.28,0.02 v 0 0 q 0.14,0.02 0.29,0.07 v 0 0 q 0.16,0.04 0.25,0.12 v 0 L 28.02,4.48 27.8,5.27 v 0 Q 27.32,5.16 27.31,5.05 v 0 0 q 0,-0.14 0.02,-0.21 v 0 0 q 0,-0.29 -0.09,-0.32 v 0 0 Q 27.15,4.48 27,4.48 v 0 0 q -0.64,0 -1.12,0.75 v 0 0 Q 25.4,5.98 25.4,7.08 Z m 8.26,-0.21 v 0 h -0.49 v 0 q -0.64,0 -1.17,0.15 v 0 0 q -0.53,0.15 -0.91,0.43 v 0 0 q -0.75,0.46 -0.75,1.24 v 0 0 q 0,0.35 0.34,0.66 v 0 0 q 0.35,0.3 0.92,0.3 v 0 0 q 0.95,0 1.51,-0.8 v 0 0 q 0.55,-0.81 0.55,-1.98 z m 0.17,2.17 v 0 0 q -0.69,1.19 -1.43,1.5 v 0 0 q -0.74,0.31 -1.5,0.31 v 0 0 q -1.03,0 -1.67,-0.57 v 0 0 Q 28.6,9.7 28.6,8.89 v 0 0 q 0,-1.31 1.34,-2.06 v 0 0 q 1.34,-0.74 3.72,-0.74 v 0 -0.74 0 q 0,-0.7 -0.35,-0.94 v 0 0 Q 32.96,4.17 32.16,4.17 v 0 0 q -0.81,0 -1.34,0.19 v 0 0 q -0.29,0.11 -0.48,0.19 v 0 0 Q 30.3,4.56 30.25,4.59 v 0 0.69 L 29.78,5.43 29.07,3.85 30.05,3.54 v 0 q 0.96,-0.32 2.44,-0.32 v 0 0 q 2.29,0 2.62,1.36 v 0 0 q 0.32,1.35 0.32,5 v 0 0.23 l 0.73,0.37 v 0.5 l -1,-0.02 -0.42,-0.01 -0.78,0.04 v 0 q -0.03,-0.06 -0.05,-0.16 v 0 0 q -0.02,-0.1 -0.02,-0.32 v 0 0 q 0,-0.24 -0.02,-0.53 v 0 0 Q 33.86,9.39 33.83,9.04 Z m 8.63,-0.32 v 0 l 0.53,0.59 v 0 q -0.44,0.54 -1.25,1.07 v 0 0 q -0.8,0.46 -1.87,0.46 v 0 0 q -1.68,0 -2.72,-0.94 v 0 0 Q 36.11,8.95 36.11,7.34 v 0 0 q 0,-1.76 1.27,-2.94 v 0 0 q 1.27,-1.18 3.18,-1.18 v 0 0 q 0.75,0 1.36,0.16 v 0 0 q 0.52,0.12 0.78,0.24 v 0 0 q -0.04,0.12 -0.15,0.4 v 0 0 q -0.1,0.27 -0.16,0.47 v 0 l -0.22,0.86 -0.5,-0.07 v -0.7 0 Q 41.64,4.54 41.49,4.46 v 0 0 Q 41.34,4.38 41.15,4.3 v 0 0 Q 40.69,4.09 40.18,4.09 v 0 0 q -1.06,0 -1.69,0.72 v 0 0 q -0.62,0.72 -0.62,1.92 v 0 0 q 0,1.3 0.69,2.11 v 0 0 q 0.69,0.81 1.83,0.81 v 0 0 q 0.9,0 1.38,-0.37 v 0 0 q 0.15,-0.11 0.42,-0.33 v 0 0 q 0.13,-0.11 0.27,-0.23 z m 7.39,-0.3 0.53,0.5 v 0 Q 50.13,9.28 49.79,9.6 v 0 0 q -0.33,0.33 -0.81,0.63 v 0 0 q -0.94,0.61 -2,0.61 v 0 0 q -1.72,0 -2.69,-0.99 v 0 0 Q 43.31,8.86 43.31,7.11 v 0 0 q 0,-1.61 1.16,-2.75 v 0 0 q 1.15,-1.14 2.78,-1.14 v 0 0 q 1.35,0 2.18,0.8 v 0 0 q 0.83,0.81 0.83,2.06 v 0 0.41 h -5.11 v 0 q 0,1.54 0.55,2.35 v 0 0 q 0.55,0.81 1.75,0.81 v 0 0 q 0.82,0 1.45,-0.44 v 0 0 Q 49.54,8.77 49.85,8.42 Z M 45.19,5.79 v 0 l 3.3,-0.15 v -0.16 0 q 0,-0.71 -0.33,-1.1 v 0 0 Q 47.83,4 47.15,4 v 0 0 q -0.9,0 -1.47,0.67 v 0 0 Q 45.35,5.1 45.19,5.79 Z m 12.97,0.43 h 2.62 L 59.44,2.37 Z m 5.92,3.81 0.77,0.17 v 0.48 l -1.87,-0.04 -1.86,0.04 V 10.2 L 62.01,10.04 61.09,7.09 H 57.86 L 57,10.04 57.83,10.2 v 0.48 l -1.51,-0.04 -1.5,0.04 V 10.2 l 0.73,-0.13 v 0 Q 55.9,9.22 56.41,7.96 v 0 0 Q 56.87,6.8 57.23,5.84 v 0 0 q 0.71,-1.91 1.51,-4.22 v 0 l 0.79,-0.19 0.77,-0.26 0.57,0.19 v 0 q 0.38,1.14 0.73,2.15 v 0 0 q 0.42,1.22 0.77,2.19 v 0 0 q 0.73,2 1.71,4.33 z m 8.34,-4.6 v 2.51 0 q 0,0.41 0.01,0.78 v 0 0 q 0.01,0.36 0.06,0.81 v 0 0 q 0.05,0.45 0.07,0.51 v 0 l 0.75,0.16 v 0.48 l -1.7,-0.04 -0.81,0.04 V 10.2 l -0.01,-0.16 v -3.61 0 q 0,-1.03 -0.31,-1.53 v 0 0 Q 70.2,4.4 69.45,4.4 v 0 0 q -0.75,0 -1.21,0.64 v 0 0 q -0.42,0.63 -0.42,1.69 v 0 1.21 0 q 0,0.48 0.01,0.81 v 0 0 q 0.01,0.33 0.06,0.64 v 0 l 0.07,0.65 0.75,0.16 v 0.48 l -1.7,-0.04 -1.72,0.04 V 10.2 l 0.75,-0.16 0.08,-0.65 v 0 q 0.02,-0.3 0.04,-0.69 v 0 0 q 0.03,-0.38 0.03,-0.76 v 0 -1.54 -0.18 -0.16 0 q 0,-0.25 -0.01,-0.51 v 0 0 Q 66.16,5.28 66.13,5.03 v 0 L 66.06,4.19 65.17,4.02 v -0.48 0 q 0.31,0 0.56,-0.04 v 0 0 Q 66.1,3.43 66.28,3.41 v 0 0 Q 66.78,3.32 66.9,3.3 v 0 0 q 0.12,-0.02 0.49,-0.13 v 0 h 0.49 l -0.06,1.31 v 0 q 0.54,-0.64 1.16,-0.95 v 0 0 Q 69.59,3.22 70.3,3.22 v 0 0 q 0.96,0 1.54,0.6 v 0 0 q 0.58,0.61 0.58,1.61 z M 75.6,4.21 v 3.82 0 q 0,0.88 0.19,1.26 v 0 0 q 0.17,0.38 0.66,0.38 v 0 0 q 0.23,0 0.52,-0.13 v 0 0 q 0.24,-0.13 0.44,-0.32 v 0 l 0.44,0.49 v 0 q -0.14,0.27 -0.69,0.7 v 0 0 q -0.55,0.43 -1.37,0.43 v 0 0 q -0.83,0 -1.35,-0.49 v 0 0 Q 73.97,9.85 73.97,9.02 v 0 -4.81 H 73.01 V 3.72 l 0.96,-0.3 -0.06,-1.57 1.75,-0.36 -0.06,1.93 1.94,-0.07 -0.38,0.9 z m 8.23,-0.83 h 1.18 L 86.82,9.51 88.25,4 87.59,3.86 V 3.38 L 88.8,3.42 90.04,3.38 V 3.85 L 89.55,4 v 0 q -0.31,0.83 -0.76,2.12 v 0 0 Q 88.41,7.21 88.35,7.4 v 0 l -1.05,3.39 -0.77,-0.03 -0.79,0.03 -1.59,-5.17 -1.53,5.17 -0.78,-0.03 -0.77,0.03 v 0 q -0.58,-1.87 -1.1,-3.4 v 0 0 Q 79.54,6.1 79.27,5.29 v 0 0 Q 79.14,4.91 78.81,4 V 4 L 78.16,3.86 V 3.38 l 1.59,0.04 1.58,-0.04 V 3.85 L 80.7,4 v 0 q 0.15,0.63 0.33,1.36 v 0 0 q 0.18,0.72 0.37,1.38 v 0 0 q 0.41,1.48 0.8,2.73 v 0 0 q 0.41,-1.55 0.83,-3.04 v 0 0 q 0.4,-1.39 0.8,-3.05 z m 12.19,5.04 0.53,0.5 v 0 Q 96.3,9.28 95.96,9.6 v 0 0 q -0.33,0.33 -0.81,0.63 v 0 0 q -0.94,0.61 -2,0.61 v 0 0 q -1.72,0 -2.69,-0.99 v 0 0 Q 89.48,8.86 89.48,7.11 v 0 0 q 0,-1.61 1.16,-2.75 v 0 0 q 1.15,-1.14 2.78,-1.14 v 0 0 q 1.35,0 2.18,0.8 v 0 0 q 0.83,0.81 0.83,2.06 v 0 0.41 h -5.11 v 0 q 0,1.54 0.55,2.35 v 0 0 q 0.55,0.81 1.75,0.81 v 0 0 q 0.82,0 1.45,-0.44 v 0 0 Q 95.71,8.77 96.02,8.42 Z M 91.36,5.79 v 0 l 3.3,-0.15 v -0.16 0 q 0,-0.71 -0.33,-1.1 v 0 0 Q 94,4 93.32,4 v 0 0 q -0.9,0 -1.47,0.67 v 0 0 Q 91.52,5.1 91.36,5.79 Z m 7.59,1.29 v 0.86 0 q 0,0.48 0.02,0.81 v 0 0 q 0.01,0.33 0.07,0.79 v 0 0 q 0.06,0.46 0.08,0.5 v 0 l 0.89,0.16 v 0.48 l -1.87,-0.04 -1.71,0.04 V 10.2 l 0.75,-0.16 0.07,-0.65 v 0 Q 97.27,9.09 97.3,8.7 v 0 0 q 0.02,-0.38 0.02,-0.76 v 0 -1.54 -0.18 -0.16 0 q 0,-0.25 -0.01,-0.51 v 0 0 Q 97.3,5.28 97.26,5.03 v 0 L 97.19,4.19 96.31,4.02 v -0.48 0 q 0.28,0 0.52,-0.04 v 0 0 q 0.35,-0.07 0.51,-0.09 v 0 0 q 0.35,-0.06 0.54,-0.1 v 0 0 q 0.19,-0.05 0.51,-0.14 v 0 h 0.42 l -0.05,2.07 v 0 q 0.34,-1 1.04,-1.52 v 0 0 q 0.33,-0.24 0.67,-0.37 v 0 0 q 0.34,-0.13 0.7,-0.13 v 0 0 q 0.14,0 0.28,0.02 v 0 0 q 0.14,0.02 0.29,0.07 v 0 0 q 0.16,0.04 0.25,0.12 v 0 l -0.42,1.05 -0.22,0.79 v 0 q -0.48,-0.11 -0.49,-0.22 v 0 0 q 0,-0.14 0.02,-0.21 v 0 0 q 0,-0.29 -0.09,-0.32 v 0 0 Q 100.7,4.48 100.55,4.48 v 0 0 q -0.64,0 -1.12,0.75 v 0 0 q -0.48,0.75 -0.48,1.85 z m 6.32,3.48 v 0 0.9 0 q 0,0.49 0.01,0.82 v 0 0 q 0.01,0.34 0.06,0.64 v 0 l 0.08,0.65 0.88,0.16 v 0.47 l -1.84,-0.03 -1.72,0.03 v -0.47 l 0.75,-0.16 0.07,-0.65 v 0 q 0.03,-0.3 0.05,-0.69 v 0 0 q 0.03,-0.39 0.03,-0.77 v 0 -5.06 -0.18 -0.16 0 q 0,-0.25 -0.02,-0.51 v 0 0 q -0.01,-0.27 -0.04,-0.52 v 0 L 103.5,4.19 102.62,4.02 v -0.48 0 q 0.3,0 0.55,-0.04 v 0 0 q 0.38,-0.07 0.56,-0.09 v 0 0 q 0.39,-0.06 0.58,-0.1 v 0 0 q 0.2,-0.05 0.54,-0.14 v 0 h 0.49 l -0.06,1.08 v 0 q 0.49,-0.56 1.04,-0.78 v 0 0 q 0.27,-0.12 0.56,-0.19 v 0 0 q 0.29,-0.06 0.57,-0.06 v 0 0 q 1.32,0 2.13,0.98 v 0 0 q 0.81,0.98 0.81,2.57 v 0 0 q 0,1.67 -1.09,2.87 v 0 0 q -0.55,0.59 -1.21,0.9 v 0 0 q -0.65,0.3 -1.43,0.3 v 0 0 q -0.36,0 -0.69,-0.06 v 0 0 q -0.34,-0.06 -0.7,-0.22 z m -0.01,-4.14 v 3.12 l 0.38,0.22 v 0 q 0.2,0.09 0.49,0.15 v 0 0 q 0.28,0.06 0.65,0.06 v 0 0 q 0.78,0 1.32,-0.81 v 0 0 q 0.54,-0.87 0.54,-2.01 v 0 0 q 0,-0.66 -0.13,-1.12 v 0 0 Q 108.39,5.56 108.1,5.16 v 0 0 Q 107.58,4.4 106.67,4.4 v 0 0 q -0.69,0 -1.05,0.51 v 0 0 q -0.36,0.52 -0.36,1.51 z m 12.3,2 0.53,0.5 v 0 q -0.25,0.36 -0.59,0.68 v 0 0 q -0.33,0.33 -0.81,0.63 v 0 0 q -0.94,0.61 -2,0.61 v 0 0 q -1.71,0 -2.69,-0.99 v 0 0 q -0.98,-0.99 -0.98,-2.74 v 0 0 q 0,-1.61 1.16,-2.75 v 0 0 q 1.15,-1.14 2.79,-1.14 v 0 0 q 1.34,0 2.17,0.8 v 0 0 q 0.83,0.81 0.83,2.06 v 0 0.41 h -5.11 v 0 q 0,1.54 0.55,2.35 v 0 0 q 0.56,0.81 1.75,0.81 v 0 0 q 0.82,0 1.46,-0.44 v 0 0 q 0.63,-0.44 0.94,-0.79 z m -4.65,-2.63 v 0 l 3.3,-0.15 v -0.16 0 q 0,-0.71 -0.34,-1.1 v 0 0 Q 115.54,4 114.86,4 v 0 0 q -0.89,0 -1.47,0.67 v 0 0 q -0.33,0.43 -0.48,1.12 z m 12.18,-0.36 v 2.51 0 q 0,0.41 0.02,0.78 v 0 0 q 0.01,0.36 0.06,0.81 v 0 0 q 0.04,0.45 0.07,0.51 v 0 l 0.75,0.16 v 0.48 l -1.71,-0.04 -0.81,0.04 V 10.2 l -0.01,-0.16 v -3.61 0 q 0,-1.03 -0.31,-1.53 v 0 0 q -0.27,-0.5 -1.02,-0.5 v 0 0 q -0.75,0 -1.22,0.64 v 0 0 q -0.41,0.63 -0.41,1.69 v 0 1.21 0 q 0,0.48 0.01,0.81 v 0 0 q 0.01,0.33 0.06,0.64 v 0 l 0.07,0.65 0.75,0.16 v 0.48 l -1.7,-0.04 -1.72,0.04 V 10.2 l 0.75,-0.16 0.07,-0.65 v 0 q 0.03,-0.3 0.05,-0.69 v 0 0 q 0.02,-0.38 0.02,-0.76 v 0 -1.54 -0.18 -0.16 0 q 0,-0.25 -0.01,-0.51 v 0 0 Q 118.84,5.28 118.8,5.03 v 0 l -0.07,-0.84 -0.88,-0.17 v -0.48 0 q 0.31,0 0.56,-0.04 v 0 0 q 0.37,-0.07 0.55,-0.09 v 0 0 q 0.5,-0.09 0.62,-0.11 v 0 0 q 0.12,-0.02 0.49,-0.13 v 0 h 0.48 l -0.05,1.31 v 0 q 0.53,-0.64 1.15,-0.95 v 0 0 q 0.62,-0.31 1.32,-0.31 v 0 0 q 0.97,0 1.55,0.6 v 0 0 q 0.57,0.61 0.57,1.61 z"
       id="path8" />
  </g>
  <defs
     data-v-fde0c5aa=""
     id="defs16">
    <linearGradient
       data-v-fde0c5aa=""
       gradientTransform="rotate(25)"
       id="43279632-8562-47a1-87b2-6b5d35c05908"
       x1="0"
       y1="0"
       x2="1"
       y2="0">
      <stop
         data-v-fde0c5aa=""
         offset="0%"
         stop-color="#E90DDA"
         stop-opacity="1"
         id="stop11" />
      <stop
         data-v-fde0c5aa=""
         offset="100%"
         stop-color="#15CFF1"
         stop-opacity="1"
         id="stop13" />
    </linearGradient>
  </defs>
  <g
     data-v-fde0c5aa=""
     id="bd88dfa6-27c5-4778-afa4-ab682b15f89b"
     stroke="none"
     fill="url(#43279632-8562-47a1-87b2-6b5d35c05908)"
     transform="matrix(0.94498764,0,0,0.94498764,83.18997,-30.158335)"
     style="fill:url(#linearGradient190)">
    <path
       d="m 48.759,51.26 -8.326,-1.704 c -0.2,-2.471 -0.382,-5.133 -0.35,-5.687 0.039,-0.635 0.416,-2.094 1.156,-2.75 a 0.969,0.969 0 0 0 0.111,-0.12 c 0.309,-0.29 0.65,-0.547 1.025,-0.823 0.674,-0.498 1.371,-1.013 1.932,-1.86 0.981,-1.521 1.254,-3.851 -0.467,-5.37 a 4.03,4.03 0 0 0 -1.06,-0.689 3.67,3.67 0 0 0 -1.541,-0.343 c -1.358,0 -2.722,0.803 -3.56,2.095 -0.559,0.867 -0.75,1.753 -0.92,2.534 l -0.021,0.092 c -0.089,0.405 -0.183,0.795 -0.315,1.178 -0.34,0.894 -0.699,1.125 -1.744,1.125 l -0.191,0.011 c -0.244,-0.004 -0.6,0.005 -1.176,0.018 l -7.283,0.161 a 2.7,2.7 0 0 0 -1.472,0.437 0.96,0.96 0 0 0 -0.208,0.152 l -6.425,6.291 c -1.74,1.269 -1.45,2.456 -0.899,3.228 0.434,0.609 0.992,0.931 1.611,0.931 l 0.082,-0.001 c 0.615,-0.028 1.168,-0.368 1.582,-0.664 a 0.88,0.88 0 0 0 0.088,-0.071 l 6.467,-6.003 3.811,0.225 -4.492,6.627 c -1.275,1.614 -1.842,3.142 -2.088,5.638 -0.15,1.514 -2.258,4.495 -3.422,5.953 l -0.823,0.05 c -2.38,0.143 -7.489,0.45 -8.237,0.499 -0.903,0.059 -1.785,0.512 -2.299,1.184 a 2.349,2.349 0 0 0 -0.448,1.949 c 0.394,1.931 1.987,1.978 3.268,2.017 1.349,0.036 10.472,-0.105 10.546,-0.106 0.073,0 0.15,-0.01 0.212,-0.026 0.812,-0.168 1.532,-0.648 1.966,-1.302 l 4.434,-5.864 5.264,2.985 4.072,6.633 c 0.283,0.462 0.479,0.778 0.625,1.003 l 0.145,0.246 c 0.763,1.301 1.577,2.072 2.422,2.292 a 2.027,2.027 0 0 0 1.551,-0.225 c 1.361,-0.803 1.562,-2.404 0.529,-4.162 l -4.827,-9.329 a 0.767,0.767 0 0 0 -0.077,-0.128 3.123,3.123 0 0 0 -0.92,-0.958 l -4.66,-3.125 2.564,-4.164 0.166,0.765 c 0.117,0.819 0.531,1.466 1.199,1.873 0.299,0.182 0.557,0.339 9.951,1.3 l 1.105,0.115 c 0.152,0.017 0.311,0.026 0.466,0.026 1.386,0 2.394,-0.662 2.565,-1.687 0.191,-1.15 -0.828,-2.096 -2.664,-2.472 z M 43.306,35.61 c 0.041,0.564 -0.137,1.198 -0.489,1.739 -0.37,0.569 -0.899,0.958 -1.491,1.395 -0.383,0.278 -0.826,0.609 -1.258,1.027 -0.006,0.004 -0.014,0.006 -0.018,0.01 -0.021,0.019 -0.037,0.042 -0.058,0.06 a 6.94,6.94 0 0 0 -0.202,0.214 c -0.088,0.096 -0.176,0.191 -0.256,0.296 -0.034,0.042 -0.07,0.077 -0.104,0.121 l -0.204,0.266 0.029,0.018 c -0.686,1.125 -0.926,2.465 -0.959,3.006 -0.059,0.982 0.328,5.68 0.407,6.612 a 0.897,0.897 0 0 0 0.712,0.802 l 8.984,1.839 c 0.684,0.14 1.043,0.345 1.191,0.464 -0.135,0.08 -0.51,0.186 -1.003,0.131 l -1.12,-0.116 c -5.528,-0.565 -8.643,-0.931 -9.263,-1.09 -0.169,-0.125 -0.264,-0.307 -0.298,-0.56 l -0.658,-3.058 a 0.89,0.89 0 0 0 -0.723,-0.693 0.905,0.905 0 0 0 -0.916,0.413 l -4.182,6.791 a 0.891,0.891 0 0 0 0.264,1.213 l 5.378,3.607 c 0.158,0.105 0.294,0.251 0.414,0.444 l 4.837,9.346 c 0.299,0.508 0.711,1.411 0.129,1.755 -0.109,0.065 -0.137,0.048 -0.19,0.034 -0.268,-0.069 -0.757,-0.491 -1.349,-1.497 -0.133,-0.212 -3.301,-5.376 -4.959,-8.077 a 0.89,0.89 0 0 0 -0.322,-0.311 l -6.146,-3.485 a 0.92,0.92 0 0 0 -1.157,0.239 l -4.937,6.532 a 1.38,1.38 0 0 1 -0.794,0.575 c -0.07,0.001 -7.061,0.112 -9.649,0.112 -0.348,0 -0.613,-0.001 -0.769,-0.007 -1.456,-0.043 -1.472,-0.125 -1.565,-0.581 a 0.578,0.578 0 0 1 0.114,-0.504 c 0.2,-0.261 0.608,-0.461 0.994,-0.486 0.979,-0.063 9.442,-0.571 9.442,-0.571 a 0.899,0.899 0 0 0 0.636,-0.321 c 0.39,-0.47 3.816,-4.663 4.069,-7.219 0.213,-2.149 0.664,-3.384 1.721,-4.718 l 5.445,-8.023 a 0.897,0.897 0 0 0 -0.689,-1.396 l -5.812,-0.342 a 0.9,0.9 0 0 0 -0.615,0.239 l -6.687,6.211 c -0.41,0.288 -0.564,0.309 -0.576,0.312 0,0 -0.06,-0.026 -0.171,-0.183 -0.102,-0.143 -0.183,-0.255 0.524,-0.762 a 0.88,0.88 0 0 0 0.104,-0.088 l 6.4,-6.262 a 0.954,0.954 0 0 1 0.574,-0.165 h 0.002 c 2.278,-0.051 8.332,-0.187 8.592,-0.189 1.244,0 2.111,-0.34 2.732,-1.079 l 0.074,0.044 0.15,-0.268 c 0.07,-0.125 0.123,-0.247 0.182,-0.37 0.035,-0.066 0.068,-0.139 0.102,-0.209 0.018,-0.04 0.037,-0.079 0.053,-0.119 0.043,-0.096 0.09,-0.185 0.129,-0.288 a 0.955,0.955 0 0 0 0.047,-0.195 c 0.152,-0.461 0.258,-0.911 0.355,-1.343 0.148,-0.695 0.286,-1.351 0.661,-1.928 0.403,-0.614 1.157,-1.27 2.063,-1.27 m 49.001,15.783 c -0.097,-0.468 -0.393,-0.875 -0.832,-1.144 -0.641,-0.396 -1.579,-0.475 -2.533,-0.217 -0.941,0.253 -5.156,1.347 -6.947,1.812 -0.879,-2.672 -1.379,-4.597 -1.359,-4.938 0.012,-0.192 0.182,-0.686 1.391,-1.435 l 0.01,0.011 0.219,-0.144 c 0.086,-0.057 0.176,-0.104 0.265,-0.154 l 0.075,-0.042 0.016,-0.011 c 0.441,-0.234 0.908,-0.395 1.426,-0.569 0.793,-0.269 1.613,-0.547 2.403,-1.182 1.397,-1.15 2.366,-3.287 1.192,-5.257 a 4.453,4.453 0 0 0 -0.361,-0.52 3.87,3.87 0 0 0 -0.439,-0.459 3.645,3.645 0 0 0 -2.495,-0.971 c -0.999,0 -2.055,0.396 -2.897,1.085 -0.795,0.656 -1.248,1.442 -1.646,2.134 l -0.05,0.083 a 12.51,12.51 0 0 1 -0.551,0.882 0.889,0.889 0 0 0 -0.138,0.161 c -0.062,0.101 -0.133,0.186 -0.203,0.27 a 4.327,4.327 0 0 1 -0.176,0.184 c -0.637,0.608 -1.463,0.719 -1.953,0.719 -0.33,0 -0.664,-0.048 -0.94,-0.134 -0.468,-0.146 -2.263,-1.062 -3.714,-1.804 -2.838,-1.449 -3.607,-1.819 -4.018,-1.858 -0.578,-0.059 -1.817,0.181 -3.832,0.745 -0.126,0.036 -0.432,0.116 -0.84,0.224 l -0.203,0.053 c -2.113,0.558 -4.055,1.075 -4.584,1.271 -0.631,0.233 -2.551,0.942 -2.061,2.744 0.179,0.655 0.711,1.437 2.229,1.437 0.344,0 0.73,-0.04 1.15,-0.119 l 7.3,-1.374 3.123,1.851 c -2.056,1.137 -5.981,3.329 -7.216,4.148 -1.822,1.209 -2.766,3.72 -2.297,6.107 0.268,1.356 1.854,4.255 2.908,6.078 -2.27,-0.244 -4.508,-0.479 -4.893,-0.497 -0.18,-0.008 -0.369,-0.021 -0.564,-0.033 a 18.518,18.518 0 0 0 -1.229,-0.052 c -0.749,0 -3.028,0 -3.279,2.13 -0.072,0.611 0.107,1.208 0.52,1.725 0.584,0.735 1.65,1.286 2.717,1.405 0.432,0.048 1.594,0.137 3.035,0.234 -2.078,1.94 -3.48,3.22 -4.069,3.71 l -0.167,0.138 c -0.922,0.759 -2.465,2.029 -2.13,3.699 0.155,0.763 0.726,1.354 1.565,1.623 0.324,0.104 0.67,0.156 1.024,0.156 0.934,0 1.851,-0.356 2.517,-0.978 a 594.68,594.68 0 0 1 3.66,-3.325 l 0.146,-0.132 a 975.292,975.292 0 0 0 4.674,-4.245 c 0.686,0.022 1.318,0.026 1.758,0.026 1.58,0 2.715,-0.471 3.37,-1.4 0.979,-1.387 0.409,-3.199 0.284,-3.548 a 519.564,519.564 0 0 0 -3.043,-8.237 l 6.614,-3.426 1.356,4.499 c 0.205,0.554 0.963,2.368 2.168,2.433 l 0.103,0.003 c 1.144,0 4.282,-0.997 7.972,-2.205 0.764,-0.25 1.365,-0.447 1.613,-0.516 2.836,-0.794 3.008,-2.129 2.856,-2.854 z M 77.894,53.27 c -0.155,-0.162 -0.479,-0.662 -0.68,-1.207 l -1.652,-5.482 a 0.897,0.897 0 0 0 -1.27,-0.535 l -8.279,4.289 a 0.897,0.897 0 0 0 -0.422,1.123 c 0.211,0.553 2.088,5.502 3.311,8.937 0.018,0.05 0.426,1.226 -0.062,1.916 -0.301,0.426 -0.942,0.642 -1.907,0.642 -0.5,0 -1.254,-0.003 -2.004,-0.033 L 60.13,62.418 c -2.272,-0.141 -4.428,-0.296 -5.012,-0.361 -0.59,-0.065 -1.227,-0.376 -1.516,-0.74 -0.146,-0.185 -0.151,-0.318 -0.141,-0.401 0.031,-0.276 0.171,-0.546 1.457,-0.546 0.334,0 0.719,0.018 1.209,0.05 0.188,0.012 0.369,0.023 0.543,0.032 0.453,0.021 4.695,0.476 6.561,0.68 0.021,0.002 0.043,0 0.063,0.001 0.012,0 0.022,0.004 0.034,0.004 0.008,0 0.016,-0.003 0.025,-0.003 a 0.87,0.87 0 0 0 0.428,-0.123 l 0.013,-0.005 c 0.004,-0.002 0.007,-0.007 0.011,-0.01 a 0.884,0.884 0 0 0 0.233,-0.215 c 0.009,-0.011 0.015,-0.022 0.022,-0.033 a 0.858,0.858 0 0 0 0.129,-0.279 c 0.002,-0.006 0.006,-0.01 0.008,-0.017 0.005,-0.019 0.005,-0.039 0.008,-0.059 0.004,-0.019 0.01,-0.036 0.012,-0.055 0.002,-0.01 0,-0.02 0,-0.03 0.003,-0.03 0.002,-0.06 0.002,-0.09 a 0.81,0.81 0 0 0 -0.02,-0.167 l -0.023,-0.09 -0.029,-0.072 c -0.014,-0.03 -0.026,-0.059 -0.043,-0.088 -0.004,-0.008 -0.008,-0.018 -0.013,-0.025 -1.261,-2.064 -3.352,-5.8 -3.595,-7.04 -0.273,-1.386 0.088,-3.314 1.529,-4.271 1.517,-1.006 7.734,-4.428 8.459,-4.827 a 0.894,0.894 0 1 0 0.026,-1.556 l -4.76,-2.821 a 0.895,0.895 0 0 0 -0.622,-0.11 l -7.632,1.437 a 4.769,4.769 0 0 1 -0.848,0.095 c -0.103,0 -0.439,-0.009 -0.471,-0.124 -0.053,-0.191 0.574,-0.454 0.953,-0.594 0.49,-0.182 3.022,-0.85 4.42,-1.218 0.521,-0.137 0.92,-0.242 1.069,-0.284 1.96,-0.549 2.896,-0.694 3.099,-0.7 0.294,0.071 2.268,1.078 3.453,1.684 2.104,1.074 3.422,1.739 3.992,1.917 0.463,0.145 0.953,0.218 1.461,0.218 1.055,0 2.027,-0.32 2.802,-0.885 l 0.015,0.017 0.213,-0.197 c 0.322,-0.271 0.607,-0.584 0.834,-0.943 l 0.006,-0.011 c 0.293,-0.4 0.537,-0.805 0.766,-1.194 0.353,-0.619 0.686,-1.203 1.22,-1.638 0.527,-0.428 1.166,-0.673 1.752,-0.673 0.62,0 1.146,0.26 1.565,0.774 0.432,0.529 0.58,1.139 0.432,1.764 -0.131,0.55 -0.494,1.1 -0.995,1.508 -0.524,0.427 -1.144,0.636 -1.847,0.874 -0.463,0.153 -1.006,0.339 -1.566,0.622 a 0.818,0.818 0 0 0 -0.16,0.066 c -1.876,1.016 -2.822,2.072 -2.893,3.23 -0.064,1.074 1.295,5.178 1.713,6.41 a 0.886,0.886 0 0 0 1.078,0.578 c 0.674,-0.174 6.613,-1.712 7.768,-2.024 0.223,-0.06 0.434,-0.09 0.625,-0.09 0.254,0 0.402,0.051 0.488,0.098 -0.113,0.139 -0.527,0.469 -1.555,0.757 a 61.29,61.29 0 0 0 -1.694,0.542 c -4.078,1.33 -6.53,2.038 -7.297,2.103 z M 62.765,64.491 c -0.97,0.882 -2.238,2.031 -3.419,3.099 l -0.047,0.042 a 651.66,651.66 0 0 0 -3.826,3.475 1.925,1.925 0 0 1 -1.304,0.493 1.56,1.56 0 0 1 -0.47,-0.067 c -0.075,-0.024 -0.324,-0.115 -0.356,-0.271 -0.123,-0.613 0.941,-1.49 1.515,-1.962 l 0.173,-0.142 c 0.904,-0.753 3.352,-3.029 5.359,-4.914 z"
       id="path18"
       style="fill:url(#linearGradient188)" />
  </g>
  <defs
     data-v-fde0c5aa=""
     id="defs21">
    <!---->
  </defs>
  <g
     data-v-fde0c5aa=""
     id="fadcb299-4aed-4442-9ead-f4a4ec74c8ba"
     fill="#262c4c"
     transform="matrix(0.71053782,0,0,0.71053782,31.981307,91.14846)">
    <path
       d="M 5.22,6.8 C 5.04,6.76 4.86,6.73 4.65,6.73 4.1,6.73 3.64,6.89 3.26,7.21 2.88,7.53 2.59,7.98 2.37,8.54 L 2.31,7.07 C 2.31,6.99 2.28,6.93 2.25,6.9 2.23,6.87 2.17,6.86 2.09,6.86 H 1.74 v 0 H 0.73 v 0.27 c 0,0.18 0.1,0.23 0.26,0.25 0.09,0 0.17,0 0.75,0.03 v 5.85 C 1.16,13.29 1.08,13.29 0.99,13.29 0.83,13.3 0.73,13.36 0.73,13.54 v 0.28 h 1.01 0.65 v 0 H 3.4 v -0.28 c 0,-0.18 -0.1,-0.24 -0.26,-0.25 -0.09,0 -0.17,0 -0.75,-0.03 V 9.3 C 2.6,8.68 2.88,8.2 3.22,7.88 3.56,7.56 3.99,7.39 4.52,7.39 4.66,7.39 4.79,7.41 4.9,7.42 5.01,7.43 5.12,7.45 5.19,7.48 5.28,7.5 5.32,7.53 5.38,7.55 5.43,7.56 5.47,7.57 5.5,7.57 5.59,7.57 5.63,7.53 5.64,7.46 L 5.73,7 C 5.57,6.92 5.4,6.85 5.22,6.8 Z m 13.97,6.49 H 19.1 18.87 c -0.1,0 -0.21,-0.02 -0.32,-0.02 V 9.28 C 18.55,8.89 18.51,8.55 18.41,8.23 18.31,7.91 18.17,7.64 17.99,7.42 17.81,7.2 17.57,7.03 17.29,6.92 17.01,6.79 16.69,6.73 16.31,6.73 c -0.5,0 -0.95,0.1 -1.36,0.28 -0.4,0.19 -0.78,0.47 -1.15,0.83 l 0.12,0.21 c 0.04,0.08 0.11,0.13 0.21,0.13 0.07,0 0.16,-0.06 0.26,-0.16 0.1,-0.1 0.24,-0.18 0.41,-0.29 0.17,-0.11 0.35,-0.21 0.59,-0.31 0.23,-0.1 0.51,-0.14 0.85,-0.14 0.55,0 0.97,0.17 1.25,0.52 0.28,0.35 0.4,0.84 0.4,1.48 v 0.73 c -0.78,0.01 -1.45,0.08 -2.01,0.2 -0.56,0.11 -1.03,0.26 -1.39,0.44 -0.36,0.19 -0.62,0.41 -0.78,0.66 -0.17,0.25 -0.26,0.52 -0.26,0.81 0,0.33 0.06,0.61 0.16,0.83 0.11,0.22 0.25,0.41 0.42,0.55 0.17,0.14 0.38,0.25 0.6,0.32 0.22,0.07 0.45,0.11 0.69,0.11 0.28,0 0.54,-0.03 0.78,-0.08 0.24,-0.06 0.45,-0.14 0.66,-0.24 0.21,-0.1 0.4,-0.23 0.6,-0.38 0.18,-0.15 0.36,-0.32 0.56,-0.5 l 0.1,0.89 c 0.03,0.13 0.12,0.2 0.26,0.2 h 0.02 0.25 0.92 v -0.28 c 0,-0.16 -0.09,-0.24 -0.28,-0.25 z m -1.3,-1.03 c -0.17,0.17 -0.32,0.34 -0.49,0.48 -0.17,0.14 -0.35,0.27 -0.54,0.38 -0.2,0.11 -0.41,0.18 -0.63,0.24 -0.23,0.05 -0.48,0.08 -0.75,0.08 -0.18,0 -0.36,-0.01 -0.53,-0.07 -0.17,-0.06 -0.31,-0.13 -0.43,-0.24 -0.13,-0.11 -0.24,-0.25 -0.31,-0.42 -0.08,-0.17 -0.11,-0.36 -0.11,-0.6 0,-0.25 0.07,-0.48 0.22,-0.67 0.16,-0.2 0.38,-0.35 0.69,-0.49 0.31,-0.14 0.7,-0.25 1.17,-0.34 0.48,-0.08 1.05,-0.14 1.71,-0.15 z m 11.93,1.67 c 0.29,0 0.57,-0.07 0.85,-0.18 0.27,-0.11 0.49,-0.27 0.68,-0.46 l -0.19,-0.31 c -0.04,-0.04 -0.07,-0.06 -0.11,-0.06 -0.03,0 -0.08,0.02 -0.14,0.07 -0.05,0.06 -0.12,0.1 -0.21,0.16 -0.08,0.05 -0.19,0.11 -0.32,0.16 -0.13,0.06 -0.25,0.07 -0.42,0.07 -0.14,0 -0.28,-0.02 -0.39,-0.07 -0.11,-0.04 -0.21,-0.11 -0.3,-0.19 -0.08,-0.09 -0.15,-0.2 -0.21,-0.34 -0.05,-0.14 -0.07,-0.29 -0.07,-0.49 V 7.57 h 2.2 v -0.5 h -2.2 V 4.41 h -0.32 c -0.05,0 -0.08,0.03 -0.11,0.06 -0.03,0.02 -0.06,0.07 -0.06,0.11 l -0.16,2.49 -1.19,0.08 v 0.26 c 0,0.05 0.01,0.08 0.04,0.11 0.03,0.03 0.08,0.05 0.14,0.05 h 0.99 v 4.76 c 0,0.55 0.13,0.94 0.39,1.21 0.27,0.26 0.63,0.39 1.11,0.39 z M 44.1,6.8 C 43.92,6.76 43.74,6.73 43.53,6.73 c -0.55,0 -1.01,0.16 -1.39,0.48 -0.38,0.32 -0.67,0.77 -0.9,1.33 L 41.19,7.07 C 41.19,6.99 41.16,6.93 41.13,6.9 41.1,6.87 41.05,6.86 40.96,6.86 h -0.35 v 0 h -1 v 0.27 c 0,0.18 0.09,0.23 0.26,0.25 0.09,0 0.17,0 0.74,0.03 v 5.85 c -0.57,0.03 -0.65,0.03 -0.74,0.03 -0.17,0.01 -0.26,0.07 -0.26,0.25 v 0.28 h 1 0.66 v 0 h 1.01 v -0.28 c 0,-0.18 -0.1,-0.24 -0.27,-0.25 -0.08,0 -0.16,0 -0.74,-0.03 V 9.3 c 0.21,-0.62 0.49,-1.1 0.83,-1.42 0.33,-0.32 0.77,-0.49 1.3,-0.49 0.14,0 0.27,0.02 0.38,0.03 0.11,0.01 0.22,0.03 0.29,0.06 0.09,0.02 0.13,0.05 0.18,0.07 0.06,0.01 0.1,0.02 0.13,0.02 0.08,0 0.13,-0.04 0.14,-0.11 L 44.6,7 C 44.45,6.92 44.28,6.85 44.1,6.8 Z m 13.97,6.49 h -0.1 -0.22 c -0.1,0 -0.21,-0.02 -0.32,-0.02 V 9.28 C 57.43,8.89 57.39,8.55 57.29,8.23 57.19,7.91 57.05,7.64 56.87,7.42 56.69,7.2 56.45,7.03 56.17,6.92 55.89,6.79 55.57,6.73 55.19,6.73 c -0.51,0 -0.95,0.1 -1.36,0.28 -0.41,0.19 -0.78,0.47 -1.15,0.83 l 0.11,0.21 c 0.05,0.08 0.12,0.13 0.21,0.13 0.07,0 0.17,-0.06 0.27,-0.16 0.1,-0.1 0.24,-0.18 0.41,-0.29 0.16,-0.11 0.35,-0.21 0.58,-0.31 0.24,-0.1 0.52,-0.14 0.86,-0.14 0.54,0 0.96,0.17 1.24,0.52 0.28,0.35 0.41,0.84 0.41,1.48 v 0.73 c -0.78,0.01 -1.46,0.08 -2.02,0.2 -0.56,0.11 -1.02,0.26 -1.38,0.44 -0.37,0.19 -0.62,0.41 -0.79,0.66 -0.16,0.25 -0.25,0.52 -0.25,0.81 0,0.33 0.06,0.61 0.16,0.83 0.11,0.22 0.25,0.41 0.42,0.55 0.16,0.14 0.37,0.25 0.6,0.32 0.22,0.07 0.45,0.11 0.68,0.11 0.28,0 0.55,-0.03 0.79,-0.08 0.24,-0.06 0.45,-0.14 0.66,-0.24 0.21,-0.1 0.4,-0.23 0.6,-0.38 0.18,-0.15 0.36,-0.32 0.56,-0.5 l 0.1,0.89 c 0.02,0.13 0.12,0.2 0.26,0.2 h 0.02 0.25 0.92 v -0.28 c 0,-0.16 -0.1,-0.24 -0.28,-0.25 z m -1.3,-1.03 c -0.17,0.17 -0.32,0.34 -0.49,0.48 -0.17,0.14 -0.35,0.27 -0.55,0.38 -0.19,0.11 -0.4,0.18 -0.63,0.24 -0.22,0.05 -0.47,0.08 -0.74,0.08 -0.18,0 -0.36,-0.01 -0.53,-0.07 -0.17,-0.06 -0.31,-0.13 -0.43,-0.24 -0.13,-0.11 -0.24,-0.25 -0.31,-0.42 -0.09,-0.17 -0.11,-0.36 -0.11,-0.6 0,-0.25 0.07,-0.48 0.22,-0.67 0.15,-0.2 0.38,-0.35 0.69,-0.49 0.3,-0.14 0.7,-0.25 1.17,-0.34 0.48,-0.08 1.05,-0.14 1.71,-0.15 z m 14.91,0.44 c -0.03,-0.04 -0.08,-0.07 -0.14,-0.07 -0.06,0 -0.11,0.03 -0.2,0.11 -0.08,0.08 -0.21,0.17 -0.35,0.27 -0.14,0.09 -0.33,0.16 -0.56,0.25 -0.22,0.08 -0.51,0.12 -0.85,0.12 -0.36,0 -0.7,-0.07 -0.99,-0.21 -0.3,-0.14 -0.55,-0.32 -0.76,-0.58 -0.21,-0.26 -0.38,-0.58 -0.49,-0.96 -0.11,-0.37 -0.17,-0.81 -0.17,-1.3 0,-0.47 0.06,-0.89 0.17,-1.27 0.11,-0.38 0.28,-0.7 0.49,-0.97 0.21,-0.26 0.48,-0.47 0.78,-0.61 0.31,-0.14 0.66,-0.21 1.07,-0.21 0.35,0 0.74,0.08 1.19,0.23 0.01,0.19 0.01,0.37 0.03,0.54 0.01,0.16 0.02,0.29 0.04,0.39 0.01,0.1 0.01,0.15 0.01,0.17 0.02,0.22 0.11,0.33 0.31,0.33 H 71.6 V 7.18 L 71.23,7.07 C 70.99,7 70.7,6.92 70.38,6.85 70.06,6.78 69.8,6.75 69.64,6.75 69.13,6.75 68.7,6.82 68.31,7 c -0.4,0.18 -0.73,0.42 -1,0.74 -0.26,0.32 -0.46,0.7 -0.6,1.14 -0.14,0.43 -0.22,0.92 -0.22,1.45 0,0.56 0.07,1.07 0.22,1.51 0.14,0.45 0.35,0.82 0.62,1.12 0.26,0.31 0.58,0.55 0.95,0.7 0.36,0.17 0.75,0.26 1.2,0.26 0.27,0 0.52,-0.03 0.76,-0.09 0.24,-0.05 0.46,-0.11 0.67,-0.19 0.21,-0.09 0.38,-0.2 0.55,-0.33 0.16,-0.12 0.29,-0.25 0.4,-0.39 z M 83.06,6.73 c -0.49,0 -0.94,0.1 -1.33,0.27 -0.39,0.17 -0.71,0.41 -0.98,0.71 -0.26,0.31 -0.47,0.68 -0.61,1.1 -0.14,0.42 -0.23,0.88 -0.23,1.38 0,0.59 0.09,1.12 0.24,1.58 0.15,0.47 0.36,0.84 0.64,1.17 0.28,0.32 0.62,0.56 1.01,0.72 0.39,0.17 0.83,0.24 1.3,0.24 0.27,0 0.54,-0.01 0.79,-0.07 0.25,-0.05 0.5,-0.12 0.73,-0.21 0.22,-0.08 0.43,-0.18 0.61,-0.31 0.18,-0.12 0.34,-0.25 0.45,-0.39 L 85.5,12.7 c -0.03,-0.04 -0.09,-0.07 -0.14,-0.07 -0.04,0 -0.13,0.03 -0.23,0.11 -0.09,0.08 -0.23,0.17 -0.42,0.27 -0.16,0.09 -0.39,0.16 -0.64,0.25 -0.25,0.08 -0.56,0.12 -0.91,0.12 -0.39,0 -0.74,-0.07 -1.06,-0.21 -0.33,-0.14 -0.59,-0.33 -0.82,-0.6 -0.22,-0.26 -0.39,-0.6 -0.51,-0.99 -0.13,-0.39 -0.19,-0.87 -0.19,-1.39 v -0.12 h 5.03 c 0.07,0 0.11,-0.02 0.14,-0.06 C 85.78,9.97 85.81,9.9 85.81,9.8 85.81,9.31 85.74,8.88 85.6,8.5 85.46,8.12 85.27,7.78 85.02,7.53 84.78,7.28 84.49,7.08 84.15,6.94 83.82,6.8 83.45,6.73 83.06,6.73 Z m 0.02,0.51 c 0.32,0 0.6,0.05 0.86,0.17 0.27,0.11 0.49,0.26 0.68,0.47 0.18,0.21 0.33,0.45 0.43,0.74 0.1,0.3 0.15,0.63 0.15,1.01 h -4.59 c 0.04,-0.36 0.13,-0.7 0.25,-0.99 0.13,-0.3 0.3,-0.55 0.51,-0.76 0.21,-0.21 0.46,-0.36 0.74,-0.47 0.28,-0.12 0.6,-0.17 0.97,-0.17 z m 16.56,6.05 h -0.1 -0.22 c -0.1,0 -0.21,-0.02 -0.33,-0.02 V 9.28 C 98.99,8.89 98.95,8.55 98.85,8.23 98.76,7.91 98.62,7.64 98.43,7.42 98.25,7.2 98.01,7.03 97.73,6.92 97.45,6.79 97.13,6.73 96.75,6.73 c -0.5,0 -0.95,0.1 -1.35,0.28 -0.41,0.19 -0.79,0.47 -1.15,0.83 l 0.11,0.21 c 0.04,0.08 0.11,0.13 0.21,0.13 0.07,0 0.17,-0.06 0.27,-0.16 0.09,-0.1 0.23,-0.18 0.4,-0.29 0.17,-0.11 0.35,-0.21 0.59,-0.31 0.24,-0.1 0.52,-0.14 0.85,-0.14 0.55,0 0.97,0.17 1.25,0.52 0.28,0.35 0.41,0.84 0.41,1.48 v 0.73 c -0.79,0.01 -1.46,0.08 -2.02,0.2 -0.56,0.11 -1.02,0.26 -1.39,0.44 -0.36,0.19 -0.61,0.41 -0.78,0.66 -0.17,0.25 -0.25,0.52 -0.25,0.81 0,0.33 0.05,0.61 0.15,0.83 0.11,0.22 0.25,0.41 0.42,0.55 0.17,0.14 0.38,0.25 0.6,0.32 0.23,0.07 0.45,0.11 0.69,0.11 0.28,0 0.55,-0.03 0.78,-0.08 0.24,-0.06 0.45,-0.14 0.66,-0.24 0.21,-0.1 0.41,-0.23 0.6,-0.38 0.19,-0.15 0.37,-0.32 0.56,-0.5 l 0.1,0.89 c 0.03,0.13 0.13,0.2 0.27,0.2 h 0.01 0.25 0.93 v -0.28 c 0,-0.16 -0.1,-0.24 -0.28,-0.25 z m -1.3,-1.03 c -0.17,0.17 -0.33,0.34 -0.49,0.48 -0.17,0.14 -0.35,0.27 -0.55,0.38 -0.2,0.11 -0.41,0.18 -0.63,0.24 -0.22,0.05 -0.48,0.08 -0.74,0.08 -0.18,0 -0.37,-0.01 -0.53,-0.07 -0.17,-0.06 -0.31,-0.13 -0.44,-0.24 -0.12,-0.11 -0.24,-0.25 -0.31,-0.42 -0.08,-0.17 -0.11,-0.36 -0.11,-0.6 0,-0.25 0.07,-0.48 0.23,-0.67 0.15,-0.2 0.37,-0.35 0.68,-0.49 0.31,-0.14 0.7,-0.25 1.18,-0.34 0.47,-0.08 1.05,-0.14 1.71,-0.15 z m 17.12,1.03 h -0.07 -0.11 c -0.05,0 -0.12,-0.02 -0.21,-0.02 -0.1,0 -0.21,-0.01 -0.34,-0.01 V 9.37 c 0,-0.41 -0.06,-0.77 -0.15,-1.1 -0.1,-0.32 -0.24,-0.6 -0.44,-0.82 -0.19,-0.23 -0.43,-0.39 -0.73,-0.52 -0.29,-0.13 -0.63,-0.18 -1,-0.18 -0.52,0 -1,0.12 -1.42,0.36 -0.42,0.25 -0.78,0.56 -1.1,0.97 l -0.06,-1.05 c -0.01,-0.11 -0.08,-0.17 -0.21,-0.17 h -0.36 -1.01 v 0.27 c 0,0.15 0.08,0.23 0.26,0.25 h 0.09 c 0.03,0 0.05,0.01 0.1,0.01 h 0.21 c 0.09,0 0.22,0.02 0.35,0.02 v 5.85 c -0.17,0 -0.31,0.03 -0.42,0.03 h -0.23 -0.1 c -0.18,0.01 -0.26,0.09 -0.26,0.25 v 0.28 h 1.01 0.65 1.01 v -0.28 c 0,-0.16 -0.08,-0.24 -0.26,-0.25 h -0.09 -0.1 c -0.04,0 -0.11,-0.02 -0.21,-0.02 -0.09,0 -0.22,-0.01 -0.35,-0.01 V 8.6 c 0.31,-0.41 0.66,-0.73 1.05,-0.97 0.4,-0.24 0.82,-0.35 1.28,-0.35 0.61,0 1.08,0.18 1.37,0.55 0.29,0.37 0.45,0.88 0.45,1.54 v 4.45 h 0.67 1.01 v -0.28 c 0,-0.16 -0.1,-0.24 -0.28,-0.25 z m 10.78,0.64 c 0.29,0 0.57,-0.07 0.85,-0.18 0.27,-0.11 0.49,-0.27 0.67,-0.46 l -0.18,-0.31 c -0.04,-0.04 -0.07,-0.06 -0.11,-0.06 -0.03,0 -0.08,0.02 -0.14,0.07 -0.06,0.06 -0.13,0.1 -0.21,0.16 -0.08,0.05 -0.2,0.11 -0.32,0.16 -0.13,0.06 -0.25,0.07 -0.42,0.07 -0.14,0 -0.28,-0.02 -0.39,-0.07 -0.12,-0.04 -0.21,-0.11 -0.3,-0.19 -0.08,-0.09 -0.15,-0.2 -0.21,-0.34 -0.05,-0.14 -0.07,-0.29 -0.07,-0.49 V 7.57 h 2.2 v -0.5 h -2.2 V 4.41 h -0.32 c -0.06,0 -0.08,0.03 -0.11,0.06 -0.03,0.02 -0.06,0.07 -0.06,0.11 l -0.17,2.49 -1.19,0.08 v 0.26 c 0,0.05 0.02,0.08 0.05,0.11 0.02,0.03 0.08,0.05 0.14,0.05 h 0.99 v 4.76 c 0,0.55 0.13,0.94 0.39,1.21 0.27,0.26 0.63,0.39 1.11,0.39 z M 146.1,6.86 h -0.49 -1.35 v 0.27 c 0,0.15 0.09,0.23 0.28,0.25 h 0.07 c 0.02,0 0.05,0.01 0.09,0.01 h 0.21 c 0.1,0 0.21,0.02 0.34,0.02 l -1.64,5.11 c -0.04,0.11 -0.05,0.21 -0.08,0.3 -0.03,0.1 -0.04,0.2 -0.06,0.3 -0.04,-0.2 -0.1,-0.39 -0.17,-0.6 l -1.84,-5.55 c -0.03,-0.1 -0.1,-0.15 -0.2,-0.15 h -0.28 c -0.1,0 -0.17,0.05 -0.2,0.15 l -1.86,5.55 c -0.04,0.11 -0.07,0.21 -0.1,0.3 l -0.08,0.3 c 0,-0.03 -0.03,-0.13 -0.06,-0.3 -0.01,-0.09 -0.04,-0.19 -0.07,-0.3 l -1.63,-5.11 c 0.15,0 0.3,-0.02 0.42,-0.02 0.11,0 0.19,-0.01 0.22,-0.01 h 0.08 c 0.19,-0.02 0.28,-0.1 0.28,-0.25 V 6.86 l -1.37,-0.01 -0.52,0.01 h -0.54 v 0.27 c 0,0.15 0.08,0.23 0.26,0.25 h 0.07 0.07 c 0.03,0 0.07,0.01 0.13,0.01 h 0.2 l 2.15,6.43 h 0.46 c 0.09,0 0.14,-0.06 0.17,-0.16 l 1.93,-5.65 c 0.03,-0.07 0.06,-0.13 0.07,-0.2 l 0.05,-0.21 0.04,0.21 c 0.01,0.07 0.04,0.13 0.07,0.2 l 1.9,5.65 c 0.03,0.1 0.1,0.16 0.17,0.16 h 0.49 l 2.14,-6.43 h 0.27 c 0.08,0 0.12,-0.01 0.15,-0.01 h 0.07 c 0.18,-0.02 0.28,-0.1 0.28,-0.25 V 6.86 Z m 11.41,-0.13 c -0.49,0 -0.93,0.1 -1.33,0.27 -0.39,0.17 -0.71,0.41 -0.98,0.71 -0.26,0.31 -0.47,0.68 -0.61,1.1 -0.14,0.42 -0.23,0.88 -0.23,1.38 0,0.59 0.09,1.12 0.24,1.58 0.16,0.47 0.37,0.84 0.65,1.17 0.28,0.32 0.61,0.56 1,0.72 0.4,0.17 0.83,0.24 1.31,0.24 0.26,0 0.53,-0.01 0.78,-0.07 0.25,-0.05 0.5,-0.12 0.73,-0.21 0.22,-0.08 0.43,-0.18 0.61,-0.31 0.19,-0.12 0.34,-0.25 0.45,-0.39 l -0.18,-0.22 c -0.03,-0.04 -0.08,-0.07 -0.14,-0.07 -0.04,0 -0.13,0.03 -0.22,0.11 -0.1,0.08 -0.24,0.17 -0.42,0.27 -0.17,0.09 -0.4,0.16 -0.65,0.25 -0.25,0.08 -0.56,0.12 -0.91,0.12 -0.39,0 -0.74,-0.07 -1.06,-0.21 -0.32,-0.14 -0.59,-0.33 -0.81,-0.6 -0.23,-0.26 -0.4,-0.6 -0.52,-0.99 -0.13,-0.39 -0.18,-0.87 -0.18,-1.39 v -0.12 h 5.02 c 0.07,0 0.11,-0.02 0.14,-0.06 0.03,-0.04 0.06,-0.11 0.06,-0.21 0,-0.49 -0.07,-0.92 -0.21,-1.3 -0.14,-0.38 -0.32,-0.72 -0.58,-0.97 -0.23,-0.25 -0.53,-0.45 -0.86,-0.59 -0.34,-0.14 -0.7,-0.21 -1.1,-0.21 z m 0.02,0.51 c 0.32,0 0.6,0.05 0.87,0.17 0.26,0.11 0.49,0.26 0.67,0.47 0.18,0.21 0.33,0.45 0.43,0.74 0.1,0.3 0.16,0.63 0.16,1.01 h -4.6 c 0.05,-0.36 0.13,-0.7 0.26,-0.99 0.12,-0.3 0.29,-0.55 0.5,-0.76 0.21,-0.21 0.46,-0.36 0.74,-0.47 0.28,-0.12 0.6,-0.17 0.97,-0.17 z M 173.01,6.8 c -0.18,-0.04 -0.36,-0.07 -0.57,-0.07 -0.55,0 -1.01,0.16 -1.39,0.48 -0.38,0.32 -0.67,0.77 -0.89,1.33 L 170.1,7.07 c 0,-0.08 -0.03,-0.14 -0.06,-0.17 -0.02,-0.03 -0.08,-0.04 -0.16,-0.04 h -0.35 v 0 h -1.01 v 0.27 c 0,0.18 0.1,0.23 0.26,0.25 0.09,0 0.17,0 0.75,0.03 v 5.85 c -0.58,0.03 -0.66,0.03 -0.75,0.03 -0.16,0.01 -0.26,0.07 -0.26,0.25 v 0.28 h 1.01 0.65 v 0 h 1.01 v -0.28 c 0,-0.18 -0.1,-0.24 -0.26,-0.25 -0.09,0 -0.17,0 -0.75,-0.03 V 9.3 c 0.21,-0.62 0.49,-1.1 0.83,-1.42 0.34,-0.32 0.77,-0.49 1.3,-0.49 0.14,0 0.27,0.02 0.38,0.03 0.11,0.01 0.22,0.03 0.29,0.06 0.09,0.02 0.13,0.05 0.19,0.07 0.05,0.01 0.09,0.02 0.12,0.02 0.09,0 0.13,-0.04 0.14,-0.11 L 173.52,7 c -0.16,-0.08 -0.33,-0.15 -0.51,-0.2 z m 14.3,0.83 c -0.48,-0.59 -1.15,-0.9 -2.01,-0.9 -0.51,0 -0.96,0.13 -1.38,0.38 -0.41,0.25 -0.77,0.58 -1.08,1 l -0.07,-1.08 c 0,-0.07 -0.01,-0.11 -0.06,-0.14 -0.04,-0.03 -0.09,-0.03 -0.15,-0.03 h -0.36 -1.01 v 0.27 c 0,0.15 0.1,0.23 0.28,0.25 h 0.07 c 0.03,0 0.07,0.01 0.11,0.01 h 0.21 c 0.1,0 0.21,0.02 0.34,0.02 v 8.31 c -0.16,0 -0.3,0.03 -0.41,0.03 h -0.24 -0.08 c -0.18,0.01 -0.28,0.1 -0.28,0.25 v 0.28 h 1.01 0.67 1.01 V 16 c 0,-0.15 -0.1,-0.24 -0.28,-0.25 h -0.07 -0.12 c -0.04,0 -0.11,-0.01 -0.21,-0.01 -0.09,0 -0.21,-0.02 -0.33,-0.02 v -2.84 c 0.25,0.34 0.54,0.6 0.89,0.77 0.35,0.17 0.76,0.25 1.24,0.25 0.49,0 0.91,-0.1 1.28,-0.28 0.38,-0.18 0.7,-0.43 0.96,-0.75 0.25,-0.33 0.46,-0.72 0.58,-1.15 0.14,-0.44 0.2,-0.93 0.2,-1.43 0,-1.19 -0.24,-2.07 -0.71,-2.66 z m -0.13,3.92 c -0.1,0.38 -0.27,0.7 -0.48,0.98 -0.21,0.28 -0.46,0.48 -0.77,0.63 -0.3,0.15 -0.67,0.22 -1.07,0.22 -0.42,0 -0.79,-0.08 -1.11,-0.25 -0.32,-0.17 -0.62,-0.43 -0.88,-0.84 V 8.64 c 0.29,-0.44 0.61,-0.77 0.99,-1.01 0.38,-0.24 0.8,-0.35 1.26,-0.35 0.72,0 1.26,0.24 1.64,0.73 0.38,0.49 0.57,1.24 0.57,2.28 0,0.46 -0.04,0.88 -0.15,1.26 z m 12.07,-4.82 c -0.49,0 -0.94,0.1 -1.33,0.27 -0.39,0.17 -0.72,0.41 -0.98,0.71 -0.27,0.31 -0.48,0.68 -0.62,1.1 -0.14,0.42 -0.22,0.88 -0.22,1.38 0,0.59 0.08,1.12 0.24,1.58 0.15,0.47 0.36,0.84 0.64,1.17 0.28,0.32 0.62,0.56 1.01,0.72 0.39,0.17 0.82,0.24 1.3,0.24 0.27,0 0.53,-0.01 0.78,-0.07 0.26,-0.05 0.51,-0.12 0.73,-0.21 0.23,-0.08 0.44,-0.18 0.62,-0.31 0.18,-0.12 0.33,-0.25 0.45,-0.39 l -0.19,-0.22 c -0.02,-0.04 -0.08,-0.07 -0.14,-0.07 -0.04,0 -0.12,0.03 -0.22,0.11 -0.1,0.08 -0.24,0.17 -0.42,0.27 -0.17,0.09 -0.39,0.16 -0.64,0.25 -0.26,0.08 -0.56,0.12 -0.91,0.12 -0.4,0 -0.75,-0.07 -1.07,-0.21 -0.32,-0.14 -0.59,-0.33 -0.81,-0.6 -0.22,-0.26 -0.39,-0.6 -0.52,-0.99 -0.12,-0.39 -0.18,-0.87 -0.18,-1.39 v -0.12 h 5.03 c 0.07,0 0.11,-0.02 0.14,-0.06 0.02,-0.04 0.05,-0.11 0.05,-0.21 0,-0.49 -0.07,-0.92 -0.21,-1.3 C 201.64,8.12 201.46,7.78 201.21,7.53 200.97,7.28 200.68,7.08 200.34,6.94 200,6.8 199.64,6.73 199.25,6.73 Z m 0.01,0.51 c 0.32,0 0.6,0.05 0.87,0.17 0.27,0.11 0.49,0.26 0.67,0.47 0.18,0.21 0.34,0.45 0.44,0.74 0.09,0.3 0.15,0.63 0.15,1.01 h -4.59 c 0.04,-0.36 0.12,-0.7 0.25,-0.99 0.13,-0.3 0.29,-0.55 0.5,-0.76 0.21,-0.21 0.47,-0.36 0.75,-0.47 0.28,-0.12 0.6,-0.17 0.96,-0.17 z m 18.2,6.05 h -0.07 -0.11 c -0.04,0 -0.11,-0.02 -0.21,-0.02 -0.1,0 -0.21,-0.01 -0.34,-0.01 V 9.37 c 0,-0.41 -0.05,-0.77 -0.15,-1.1 -0.1,-0.32 -0.24,-0.6 -0.43,-0.82 -0.2,-0.23 -0.44,-0.39 -0.73,-0.52 -0.3,-0.13 -0.63,-0.18 -1.01,-0.18 -0.52,0 -0.99,0.12 -1.41,0.36 -0.42,0.25 -0.79,0.56 -1.11,0.97 l -0.06,-1.05 c -0.01,-0.11 -0.08,-0.17 -0.21,-0.17 h -0.36 -1.01 v 0.27 c 0,0.15 0.09,0.23 0.27,0.25 h 0.08 c 0.03,0 0.06,0.01 0.1,0.01 h 0.21 c 0.1,0 0.22,0.02 0.35,0.02 v 5.85 c -0.17,0 -0.31,0.03 -0.42,0.03 h -0.22 -0.1 c -0.18,0.01 -0.27,0.09 -0.27,0.25 v 0.28 h 1.01 0.66 1.01 v -0.28 c 0,-0.16 -0.09,-0.24 -0.27,-0.25 h -0.08 -0.1 c -0.04,0 -0.11,-0.02 -0.21,-0.02 -0.1,0 -0.23,-0.01 -0.35,-0.01 V 8.6 c 0.31,-0.41 0.66,-0.73 1.05,-0.97 0.39,-0.24 0.81,-0.35 1.27,-0.35 0.62,0 1.08,0.18 1.37,0.55 0.3,0.37 0.45,0.88 0.45,1.54 v 4.45 h 0.67 1.01 v -0.28 c 0,-0.16 -0.1,-0.24 -0.28,-0.25 z m 8.85,0 c 0,0.18 0.06,0.32 0.18,0.44 0.13,0.13 0.28,0.2 0.46,0.2 0.09,0 0.17,-0.03 0.26,-0.06 0.08,-0.02 0.14,-0.08 0.19,-0.14 0.06,-0.05 0.11,-0.11 0.14,-0.19 0.03,-0.09 0.06,-0.16 0.06,-0.25 0,-0.09 -0.03,-0.17 -0.06,-0.26 -0.03,-0.08 -0.08,-0.15 -0.14,-0.21 -0.05,-0.05 -0.11,-0.11 -0.19,-0.14 -0.09,-0.02 -0.17,-0.05 -0.26,-0.05 -0.09,0 -0.18,0.03 -0.26,0.05 -0.09,0.03 -0.14,0.09 -0.2,0.14 -0.05,0.06 -0.11,0.13 -0.14,0.21 -0.03,0.09 -0.04,0.17 -0.04,0.26 z m 14.97,-0.59 c -0.03,-0.04 -0.09,-0.07 -0.14,-0.07 -0.06,0 -0.12,0.03 -0.2,0.11 -0.08,0.08 -0.21,0.17 -0.35,0.27 -0.14,0.09 -0.34,0.16 -0.56,0.25 -0.22,0.08 -0.52,0.12 -0.85,0.12 -0.37,0 -0.7,-0.07 -1,-0.21 -0.29,-0.14 -0.54,-0.32 -0.75,-0.58 -0.21,-0.26 -0.38,-0.58 -0.49,-0.96 -0.12,-0.37 -0.17,-0.81 -0.17,-1.3 0,-0.47 0.05,-0.89 0.17,-1.27 0.11,-0.38 0.28,-0.7 0.49,-0.97 0.21,-0.26 0.47,-0.47 0.78,-0.61 0.31,-0.14 0.66,-0.21 1.06,-0.21 0.35,0 0.75,0.08 1.19,0.23 0.02,0.19 0.02,0.37 0.03,0.54 0.02,0.16 0.03,0.29 0.04,0.39 0.02,0.1 0.02,0.15 0.02,0.17 0.01,0.22 0.11,0.33 0.31,0.33 h 0.33 V 7.18 L 240.83,7.07 C 240.59,7 240.3,6.92 239.97,6.85 c -0.32,-0.07 -0.57,-0.1 -0.74,-0.1 -0.5,0 -0.94,0.07 -1.33,0.25 -0.39,0.18 -0.73,0.42 -0.99,0.74 -0.27,0.32 -0.46,0.7 -0.6,1.14 -0.14,0.43 -0.23,0.92 -0.23,1.45 0,0.56 0.07,1.07 0.23,1.51 0.14,0.45 0.35,0.82 0.61,1.12 0.27,0.31 0.59,0.55 0.95,0.7 0.37,0.17 0.76,0.26 1.21,0.26 0.26,0 0.52,-0.03 0.75,-0.09 0.24,-0.05 0.47,-0.11 0.68,-0.19 0.21,-0.09 0.37,-0.2 0.54,-0.33 0.17,-0.12 0.3,-0.25 0.41,-0.39 z M 252.7,6.73 c -0.5,0 -0.95,0.1 -1.34,0.27 -0.4,0.17 -0.73,0.41 -1.01,0.71 -0.28,0.31 -0.48,0.69 -0.62,1.14 -0.14,0.45 -0.22,0.94 -0.22,1.48 0,0.55 0.08,1.04 0.22,1.47 0.14,0.44 0.34,0.83 0.62,1.14 0.28,0.3 0.61,0.54 1.01,0.71 0.39,0.17 0.84,0.25 1.34,0.25 0.5,0 0.94,-0.08 1.33,-0.25 0.39,-0.17 0.73,-0.41 0.99,-0.71 0.27,-0.31 0.49,-0.7 0.63,-1.14 0.14,-0.43 0.21,-0.92 0.21,-1.47 0,-0.54 -0.07,-1.03 -0.21,-1.48 C 255.51,8.4 255.29,8.02 255.02,7.71 254.76,7.41 254.42,7.17 254.03,7 253.64,6.83 253.2,6.73 252.7,6.73 Z m 0,6.65 c -0.42,0 -0.78,-0.07 -1.09,-0.21 -0.31,-0.14 -0.58,-0.35 -0.79,-0.61 -0.21,-0.27 -0.35,-0.59 -0.46,-0.97 -0.11,-0.38 -0.15,-0.8 -0.15,-1.26 0,-0.46 0.04,-0.88 0.15,-1.26 0.11,-0.38 0.25,-0.7 0.46,-0.96 0.21,-0.27 0.48,-0.49 0.79,-0.63 0.31,-0.14 0.67,-0.21 1.09,-0.21 0.42,0 0.77,0.07 1.08,0.21 0.31,0.14 0.57,0.36 0.78,0.63 0.21,0.26 0.37,0.58 0.46,0.96 0.1,0.38 0.16,0.8 0.16,1.26 0,0.46 -0.06,0.88 -0.16,1.26 -0.09,0.38 -0.25,0.7 -0.46,0.97 -0.21,0.26 -0.47,0.47 -0.78,0.61 -0.31,0.14 -0.66,0.21 -1.08,0.21 z m 22.2,-0.09 h -0.08 -0.1 c -0.04,0 -0.11,-0.02 -0.21,-0.02 -0.1,0 -0.22,-0.01 -0.35,-0.01 V 9.37 c 0,-0.42 -0.05,-0.8 -0.15,-1.12 -0.1,-0.33 -0.24,-0.61 -0.44,-0.83 -0.19,-0.22 -0.43,-0.39 -0.71,-0.5 -0.28,-0.12 -0.57,-0.17 -0.92,-0.17 -0.24,0 -0.49,0.03 -0.72,0.1 -0.22,0.07 -0.43,0.16 -0.63,0.3 -0.19,0.14 -0.38,0.31 -0.53,0.52 -0.15,0.21 -0.27,0.46 -0.35,0.76 -0.11,-0.53 -0.31,-0.95 -0.62,-1.25 -0.3,-0.29 -0.71,-0.43 -1.21,-0.43 -0.23,0 -0.44,0.01 -0.63,0.08 -0.2,0.06 -0.38,0.16 -0.56,0.27 -0.17,0.11 -0.34,0.26 -0.49,0.42 -0.16,0.15 -0.3,0.32 -0.44,0.52 L 265.71,7.03 C 265.69,6.92 265.62,6.86 265.5,6.86 h -0.37 -1.01 v 0.27 c 0,0.15 0.09,0.23 0.27,0.25 h 0.08 c 0.03,0 0.06,0.01 0.1,0.01 h 0.21 c 0.1,0 0.23,0.02 0.35,0.02 v 5.85 c -0.17,0 -0.31,0.03 -0.42,0.03 h -0.22 -0.1 c -0.18,0.01 -0.27,0.09 -0.27,0.25 v 0.28 h 1.01 0.66 1.01 v -0.28 c 0,-0.16 -0.09,-0.24 -0.27,-0.25 h -0.08 -0.1 c -0.04,0 -0.11,-0.02 -0.21,-0.02 -0.1,0 -0.22,-0.01 -0.35,-0.01 V 8.55 c 0.25,-0.4 0.55,-0.71 0.87,-0.93 0.32,-0.23 0.67,-0.34 1.05,-0.34 0.52,0 0.91,0.17 1.17,0.53 0.27,0.37 0.41,0.88 0.41,1.56 v 4.45 h 0.67 v 0 h 1.01 v -0.28 c 0,-0.16 -0.1,-0.24 -0.28,-0.25 h -0.07 -0.11 c -0.04,0 -0.11,-0.02 -0.21,-0.02 -0.1,0 -0.21,-0.01 -0.34,-0.01 V 9.37 c 0,-0.35 0.04,-0.65 0.14,-0.91 0.1,-0.27 0.24,-0.49 0.41,-0.66 0.17,-0.17 0.36,-0.31 0.59,-0.39 0.22,-0.09 0.46,-0.13 0.7,-0.13 0.54,0 0.96,0.18 1.26,0.53 0.29,0.37 0.44,0.87 0.44,1.56 v 4.45 h 0.66 1.01 v -0.28 c 0,-0.16 -0.08,-0.24 -0.27,-0.25 z"
       id="path23" />
  </g>
</svg>
